<?xml version="1.0" encoding="iso-8859-1"?>
<!-- Generator: Adobe Illustrator 19.0.0, SVG Export Plug-In . SVG Version: 6.00 Build 0)  -->
<svg version="1.1" id="Capa_1" xmlns="http://www.w3.org/2000/svg" xmlns:xlink="http://www.w3.org/1999/xlink" x="0px" y="0px"
	 viewBox="0 0 503.85 503.85" style="enable-background:new 0 0 503.85 503.85;" xml:space="preserve">
<g transform="translate(-1)">
	<g transform="translate(2 2)">
		<g>
			<path style="fill:#FFB301;" d="M183.861,439.295c-16.834,37.121-56.061,58.766-96.441,53.214
				c-8.91-1.163-17.595-3.652-25.768-7.386c-37.491-17.006-59.171-56.8-53.131-97.522s38.337-72.51,79.15-77.901h0.168
				c5.525-0.841,11.124-1.094,16.703-0.755c11.582,0.54,22.952,3.304,33.49,8.142c5.262,2.365,10.268,5.261,14.94,8.645
				C189.287,351.2,202.272,398.943,183.861,439.295z"/>
			<path style="fill:#FFB301;" d="M486.109,439.295c-16.871,37.128-56.123,58.768-96.525,53.214
				c-8.918-1.123-17.609-3.614-25.768-7.386c-41.554-18.875-63.067-65.291-50.612-109.199c1.283-4.445,2.882-8.793,4.784-13.01
				c13.025-28.81,39.938-48.908,71.26-53.214c17.34-2.5,35.032,0.065,50.948,7.386c22.305,10.105,39.677,28.664,48.289,51.587
				C497.098,391.597,496.243,417.003,486.109,439.295z"/>
			<path style="fill:#FFB301;" d="M343.253,98.941c-0.025,45.119-32.636,83.621-77.136,91.069
				c-5.02,0.846-10.102,1.267-15.192,1.259c-48.376-0.224-88.377-37.751-91.685-86.015c-3.307-48.264,31.201-90.897,79.094-97.717
				c4.165-0.647,8.375-0.956,12.59-0.923c24.491-0.013,47.983,9.71,65.3,27.027C333.543,50.959,343.266,74.45,343.253,98.941z"/>
		</g>
		<g>
			<path style="fill:#FEC108;" d="M158.681,439.295c-13.025,28.81-39.938,48.908-71.26,53.214
				c-8.91-1.163-17.595-3.652-25.768-7.386c-37.491-17.006-59.171-56.8-53.131-97.522s38.337-72.51,79.15-77.901h0.168
				c8.641,1.285,17.06,3.771,25.012,7.386c5.262,2.365,10.268,5.261,14.94,8.645C164.106,351.2,177.092,398.943,158.681,439.295z"/>
			<path style="fill:#FEC108;" d="M460.929,439.295c-13.08,28.801-40.01,48.887-71.344,53.214
				c-8.918-1.123-17.609-3.614-25.768-7.386c-41.554-18.875-63.067-65.291-50.612-109.199c1.283-4.445,2.882-8.793,4.784-13.01
				c13.025-28.81,39.938-48.908,71.26-53.214c8.91,1.163,17.595,3.652,25.768,7.386c22.305,10.105,39.677,28.664,48.289,51.587
				C471.918,391.597,471.063,417.003,460.929,439.295z"/>
			<path style="fill:#FEC108;" d="M318.072,98.941c-0.025,45.119-32.636,83.621-77.136,91.069c-0.911,0.194-1.838,0.307-2.77,0.336
				c-45.652-6.336-79.627-45.388-79.584-91.478c0.042-46.09,34.089-85.079,79.752-91.331
				C284.048,13.748,318.123,52.808,318.072,98.941z"/>
		</g>
		<g>
			<circle style="fill:#FFFFFF;" cx="65.111" cy="376.093" r="16.787"/>
			<circle style="fill:#FFFFFF;" cx="376.994" cy="443.072" r="16.787"/>
		</g>
		<g>
			<path style="fill:#9E9E9E;" d="M396.635,365.769c-3.831,2.2-8.172,3.358-12.59,3.357c-8.987,0.033-17.295-4.778-21.739-12.59
				l-16.535-28.622L266.117,190.01c16.951-2.788,32.775-10.293,45.66-21.655l81.332,140.842l12.758,22.159
				c3.343,5.787,4.248,12.665,2.516,19.12S402.426,362.432,396.635,365.769z"/>
			<path style="fill:#9E9E9E;" d="M313.204,426.286h-137.82c-13.907,0-25.18-11.274-25.18-25.18c0-13.907,11.274-25.18,25.18-25.18
				h137.82C308.503,392.383,308.503,409.828,313.204,426.286z"/>
		</g>
		<circle style="fill:#FFFFFF;" cx="259.318" cy="56.974" r="16.787"/>
		<path style="fill:#9E9E9E;" d="M248.743,159.542c-0.341,0.808-0.733,1.593-1.175,2.35l-15.78,27.363l-78.73,136.393l-0.084,0.084
			c-4.672-3.384-9.678-6.281-14.94-8.645c-10.537-4.838-21.908-7.602-33.49-8.142v-0.084l82.591-143.108l16.787-29.041
			c3.336-5.791,8.838-10.017,15.293-11.749s13.333-0.827,19.12,2.516C249.447,133.969,253.924,147.762,248.743,159.542z"/>
	</g>
	<g>
		<path d="M404.007,302.384c-1.427,0-2.812,0.134-4.197,0.193l-75.541-130.778c38.847-39.012,39.171-101.987,0.729-141.398
			s-101.406-40.653-141.372-2.789s-42.126,100.803-4.849,141.317l-77.035,133.456C50.519,302.377,7.448,340.816,1.653,391.71
			s27.532,98.033,77.446,109.541s100.516-16.279,117.59-64.573h112.472c17.079,48.306,67.7,76.093,117.623,64.565
			c49.923-11.528,83.236-58.697,77.405-109.6S455.243,302.325,404.007,302.384z M177.384,419.892
			c-9.271,0-16.787-7.516-16.787-16.787c0-9.271,7.516-16.787,16.787-16.787h127.345c-1.925,11.108-1.925,22.465,0,33.574H177.384z
			 M309.111,369.531H196.689c-6.066-17.19-16.683-32.411-30.72-44.04l72.184-125.062c4.886,0.78,9.824,1.192,14.772,1.234
			c3.579-0.022,7.154-0.234,10.71-0.638l73.333,126.968C324.288,339.233,314.698,353.534,309.111,369.531z M213.182,142.908
			c4.655-8.017,14.909-10.773,22.956-6.169c7.498,4.403,10.449,13.765,6.832,21.672c-0.195,0.441-0.416,0.87-0.663,1.284
			l-90.154,156.185c-9.907-5.742-20.727-9.74-31.987-11.818L213.182,142.908z M281.051,197.6
			c10.855-3.148,21.098-8.115,30.292-14.689l89.256,154.632c2.231,3.858,2.836,8.445,1.681,12.749
			c-1.154,4.305-3.972,7.974-7.834,10.198c-8.045,4.388-18.119,1.675-22.872-6.161L281.051,197.6z M168.991,100.941
			c0-44.563,34.823-81.358,79.318-83.808s83.149,30.297,88.043,74.59c4.894,44.293-25.679,84.689-69.636,92.011
			c-6.416,1.038-12.932,1.319-19.414,0.839l9.627-16.669c0.541-0.938,1.026-1.908,1.452-2.904
			c6.971-15.713,1.004-34.154-13.849-42.807c-16.079-9.207-36.576-3.702-45.879,12.322l-11.012,19.078
			C175.516,138.731,168.924,120.122,168.991,100.941z M101.843,487.04c-46.356,0-83.934-37.579-83.934-83.934
			s37.579-83.934,83.934-83.934c1.486,0,2.82,0,4.272,0.067c31.778,1.616,59.895,21.104,72.561,50.294h-1.293
			c-18.542,0-33.574,15.031-33.574,33.574s15.031,33.574,33.574,33.574h1.309C165.308,467.202,135.172,486.95,101.843,487.04z
			 M404.007,487.04c-37.539-0.077-70.485-25.014-80.753-61.121c-4.258-14.942-4.258-30.777,0-45.719
			c3.987-14.189,11.692-27.054,22.318-37.267l11.432,19.741c5.75,10.85,16.964,17.695,29.242,17.85s23.661-6.405,29.683-17.106
			c6.022-10.701,5.721-23.836-0.784-34.25l-5.615-9.72c45.192,2.934,79.896,41.209,78.404,86.471
			C486.442,451.181,449.294,487.087,404.007,487.04z"/>
		<path d="M261.318,84.154c13.907,0,25.18-11.274,25.18-25.18s-11.274-25.18-25.18-25.18s-25.18,11.274-25.18,25.18
			S247.412,84.154,261.318,84.154z M261.318,50.581c4.636,0,8.393,3.758,8.393,8.393s-3.758,8.393-8.393,8.393
			c-4.636,0-8.393-3.758-8.393-8.393S256.683,50.581,261.318,50.581z"/>
		<path d="M68.269,352.745c-13.907,0-25.18,11.274-25.18,25.18c0,13.907,11.274,25.18,25.18,25.18s25.18-11.274,25.18-25.18
			C93.45,364.018,82.176,352.745,68.269,352.745z M68.269,386.318c-4.636,0-8.393-3.758-8.393-8.393s3.758-8.393,8.393-8.393
			s8.393,3.758,8.393,8.393S72.905,386.318,68.269,386.318z"/>
		<path d="M378.827,419.892c-13.907,0-25.18,11.274-25.18,25.18c0,13.907,11.274,25.18,25.18,25.18
			c13.907,0,25.18-11.274,25.18-25.18C404.007,431.166,392.733,419.892,378.827,419.892z M378.827,453.466
			c-4.636,0-8.393-3.758-8.393-8.393s3.758-8.393,8.393-8.393c4.636,0,8.393,3.758,8.393,8.393S383.462,453.466,378.827,453.466z"/>
	</g>
</g>
<g>
</g>
<g>
</g>
<g>
</g>
<g>
</g>
<g>
</g>
<g>
</g>
<g>
</g>
<g>
</g>
<g>
</g>
<g>
</g>
<g>
</g>
<g>
</g>
<g>
</g>
<g>
</g>
<g>
</g>
</svg>
