<?xml version="1.0" encoding="iso-8859-1"?>
<!-- Generator: Adobe Illustrator 19.0.0, SVG Export Plug-In . SVG Version: 6.00 Build 0)  -->
<svg version="1.1" id="Capa_1" xmlns="http://www.w3.org/2000/svg" xmlns:xlink="http://www.w3.org/1999/xlink" x="0px" y="0px"
	 viewBox="0 0 512.02 512.02" style="enable-background:new 0 0 512.02 512.02;" xml:space="preserve">
<g transform="translate(-1 -1)">
	<g transform="translate(2 2)">
		<rect x="33.143" y="33.143" style="fill:#FFEB3A;" width="341.333" height="341.333"/>
		<g>
			<polygon style="fill:#FEC108;" points="135.543,476.877 33.143,374.477 33.143,33.143 135.543,135.543 			"/>
			<polygon style="fill:#FEC108;" points="476.877,476.877 374.477,374.477 374.477,33.143 476.877,135.543 			"/>
		</g>
		<rect x="135.543" y="135.543" style="fill:#FF9801;" width="341.333" height="341.333"/>
		<g>
			<circle style="fill:#E91E63;" cx="33.143" cy="33.143" r="25.6"/>
			<circle style="fill:#E91E63;" cx="374.477" cy="33.143" r="25.6"/>
			<circle style="fill:#E91E63;" cx="33.143" cy="374.477" r="25.6"/>
		</g>
		<circle style="fill:#9D27B0;" cx="374.477" cy="374.477" r="25.6"/>
		<g>
			<circle style="fill:#E91E63;" cx="135.543" cy="135.543" r="25.6"/>
			<circle style="fill:#E91E63;" cx="476.877" cy="135.543" r="25.6"/>
			<circle style="fill:#E91E63;" cx="135.543" cy="476.877" r="25.6"/>
			<circle style="fill:#E91E63;" cx="476.877" cy="476.877" r="25.6"/>
		</g>
	</g>
	<path d="M513.01,137.543c0-18.851-15.282-34.133-34.133-34.133c-6.074,0.03-12.027,1.702-17.229,4.838l-55.876-55.876
		c3.137-5.202,4.809-11.155,4.838-17.229c0.021-17.167-12.735-31.668-29.765-33.835c-17.03-2.167-33.011,8.676-37.29,25.302H68.065
		C63.938,10.505,48.788-0.268,32.221,1.12S2.509,15.654,1.12,32.221s9.385,31.717,25.49,35.844v275.49
		c-16.625,4.279-27.469,20.261-25.302,37.29c2.167,17.03,16.668,29.786,33.835,29.765c6.074-0.03,12.027-1.702,17.229-4.838
		l55.876,55.876c-3.137,5.202-4.809,11.155-4.838,17.229c-0.021,17.167,12.735,31.668,29.765,33.835s33.011-8.676,37.29-25.302
		h275.49c4.127,16.105,19.277,26.879,35.844,25.49c16.567-1.389,29.712-14.534,31.101-31.101
		c1.389-16.567-9.385-31.717-25.49-35.844v-275.49C502.435,166.586,512.952,153.061,513.01,137.543z M495.944,137.543
		c0.005,7.725-5.178,14.49-12.639,16.494c-7.46,2.004-15.337-1.252-19.203-7.94c-3.866-6.688-2.759-15.138,2.7-20.604
		c4.878-4.883,12.217-6.348,18.596-3.71C491.777,124.421,495.939,130.641,495.944,137.543z M461.648,449.582l-55.876-55.876
		c3.137-5.202,4.809-11.155,4.838-17.229c-0.058-15.517-10.575-29.042-25.6-32.922V146.077h60.945
		c3.122,11.941,12.447,21.266,24.388,24.388v275.49C467.288,446.747,464.361,447.968,461.648,449.582z M146.077,445.955V385.01
		h197.478c3.879,15.025,17.404,25.542,32.922,25.6c6.074-0.03,12.027-1.702,17.229-4.838l55.876,55.876
		c-1.614,2.713-2.835,5.64-3.627,8.695h-275.49C167.343,458.403,158.018,449.077,146.077,445.955z M120.315,449.582l-55.876-55.876
		c1.614-2.713,2.835-5.64,3.627-8.695h60.945v60.945C125.955,446.747,123.027,447.968,120.315,449.582z M52.372,64.438
		l55.876,55.876c-3.137,5.202-4.809,11.155-4.838,17.229c0.058,15.517,10.575,29.042,25.6,32.922v197.478H68.065
		c-3.122-11.941-12.447-21.266-24.388-24.388V68.065C46.732,67.273,49.66,66.052,52.372,64.438z M367.944,68.065v60.945H170.465
		c-3.879-15.025-17.404-25.542-32.922-25.6c-6.074,0.03-12.027,1.702-17.229,4.838L64.438,52.372
		c1.614-2.713,2.835-5.64,3.627-8.695h275.49C346.677,55.618,356.003,64.943,367.944,68.065z M393.706,64.438l55.876,55.876
		c-1.614,2.713-2.835,5.64-3.627,8.695H385.01V68.065C388.065,67.273,390.993,66.052,393.706,64.438z M388.586,388.526
		c-5.74,5.779-14.764,6.696-21.55,2.191c-6.786-4.506-9.441-13.179-6.342-20.712c3.099-7.533,11.09-11.825,19.082-10.251
		c7.992,1.575,13.757,8.577,13.768,16.723c0.002,4.533-1.804,8.879-5.018,12.075L388.586,388.526z M367.944,343.555
		c-11.941,3.122-21.266,12.447-24.388,24.388H146.077V170.465c11.941-3.122,21.266-12.447,24.388-24.388h197.478V343.555z
		 M125.469,125.494c5.756-5.762,14.78-6.654,21.553-2.131c6.773,4.523,9.406,13.201,6.289,20.725s-11.116,11.797-19.103,10.205
		c-7.987-1.592-13.736-8.605-13.73-16.75c-0.002-4.533,1.804-8.879,5.018-12.075L125.469,125.494z M376.477,18.077
		c6.896,0.005,13.111,4.159,15.753,10.529s1.19,13.703-3.678,18.587c-5.457,5.474-13.911,6.597-20.608,2.738
		c-6.697-3.859-9.964-11.737-7.964-19.203S368.748,18.071,376.477,18.077z M18.077,35.143c-0.006-7.725,5.178-14.49,12.639-16.494
		s15.337,1.252,19.203,7.94c3.866,6.688,2.759,15.138-2.7,20.604c-4.878,4.883-12.217,6.348-18.596,3.71
		C22.244,48.266,18.082,42.046,18.077,35.143z M18.077,376.477c-0.006-7.725,5.178-14.49,12.639-16.494
		c7.46-2.004,15.337,1.252,19.203,7.94c3.866,6.688,2.759,15.138-2.7,20.604c-4.878,4.883-12.217,6.348-18.596,3.71
		S18.082,383.379,18.077,376.477z M137.543,495.944c-6.896-0.005-13.111-4.159-15.753-10.529c-2.642-6.37-1.19-13.703,3.678-18.587
		c5.457-5.474,13.911-6.597,20.608-2.738c6.697,3.859,9.964,11.737,7.964,19.203C152.041,490.759,145.273,495.949,137.543,495.944z
		 M495.944,478.877c0.005,7.725-5.178,14.49-12.639,16.494c-7.46,2.004-15.337-1.252-19.203-7.94
		c-3.866-6.688-2.759-15.138,2.7-20.604c4.878-4.883,12.217-6.348,18.596-3.71C491.777,465.755,495.939,471.974,495.944,478.877z"/>
</g>
<g>
</g>
<g>
</g>
<g>
</g>
<g>
</g>
<g>
</g>
<g>
</g>
<g>
</g>
<g>
</g>
<g>
</g>
<g>
</g>
<g>
</g>
<g>
</g>
<g>
</g>
<g>
</g>
<g>
</g>
</svg>
