<?xml version="1.0" encoding="iso-8859-1"?>
<!-- Generator: Adobe Illustrator 19.0.0, SVG Export Plug-In . SVG Version: 6.00 Build 0)  -->
<svg version="1.1" id="Capa_1" xmlns="http://www.w3.org/2000/svg" xmlns:xlink="http://www.w3.org/1999/xlink" x="0px" y="0px"
	 viewBox="0 0 512 512" style="enable-background:new 0 0 512 512;" xml:space="preserve">
<g>
	<g transform="translate(22 1)">
		<path style="fill:#558B30;" d="M297.595,491.459c0.785,2.59,0.295,5.398-1.321,7.569c-1.616,2.171-4.165,3.447-6.871,3.439H178.64
			c-2.706,0.008-5.256-1.268-6.871-3.439s-2.106-4.979-1.321-7.569c18.347-62.635,29.44-145.579,29.44-236.459
			s-11.093-173.824-29.44-236.459c-0.785-2.59-0.295-5.398,1.321-7.569s4.165-3.447,6.871-3.439h110.763
			c2.706-0.008,5.256,1.268,6.871,3.439c1.616,2.171,2.106,4.979,1.321,7.569C279.248,81.176,268.155,164.12,268.155,255
			S279.248,428.824,297.595,491.459z"/>
		<path style="fill:#8BC34A;" d="M276.176,491.459c0.762,2.588,0.262,5.384-1.349,7.549c-1.611,2.164-4.145,3.446-6.843,3.459
			H178.64c-2.706,0.008-5.256-1.268-6.871-3.439s-2.106-4.979-1.321-7.569c18.347-62.635,29.44-145.579,29.44-236.459
			s-11.093-173.824-29.44-236.459c-0.785-2.59-0.295-5.398,1.321-7.569s4.165-3.447,6.871-3.439h89.344
			c2.698,0.014,5.233,1.295,6.843,3.459s2.11,4.96,1.349,7.549C257.829,81.176,246.736,164.12,246.736,255
			S257.829,428.824,276.176,491.459z"/>
	</g>
	<g>
		<path d="M8.555,213.334h34.133c4.713,0,8.533-3.821,8.533-8.533c0-4.713-3.821-8.533-8.533-8.533H8.555
			c-4.713,0-8.533,3.821-8.533,8.533C0.021,209.513,3.842,213.334,8.555,213.334z"/>
		<path d="M8.555,315.734h34.133c4.713,0,8.533-3.82,8.533-8.533s-3.821-8.533-8.533-8.533H8.555c-4.713,0-8.533,3.821-8.533,8.533
			S3.842,315.734,8.555,315.734z"/>
		<path d="M8.555,264.534h34.133c4.713,0,8.533-3.82,8.533-8.533s-3.821-8.533-8.533-8.533H8.555c-4.713,0-8.533,3.82-8.533,8.533
			S3.842,264.534,8.555,264.534z"/>
		<path d="M511.501,253.338c-0.081-0.291-0.181-0.576-0.299-0.853c-0.404-0.953-0.982-1.821-1.707-2.56l-42.667-42.667
			c-3.348-3.234-8.671-3.188-11.962,0.104c-3.292,3.292-3.338,8.614-0.104,11.962l28.126,28.143H298.816
			c0.102-12.863,0.435-25.603,0.998-38.221L463.8,120.807l-11.366,38.033c-0.917,2.934-0.186,6.134,1.915,8.378
			c2.101,2.244,5.246,3.185,8.234,2.462s5.356-2.995,6.201-5.951l17.28-57.813c0-0.085,0-0.171,0-0.256
			c0.304-0.976,0.425-2,0.358-3.021v-0.043c0-0.128-0.077-0.239-0.094-0.367c-0.132-0.844-0.388-1.663-0.759-2.432
			c-0.161-0.311-0.343-0.611-0.546-0.896c-0.34-0.526-0.738-1.013-1.186-1.451c-0.264-0.278-0.549-0.535-0.853-0.768
			c-0.632-0.459-1.324-0.83-2.057-1.101c-0.196-0.077-0.333-0.222-0.538-0.29c-0.057-0.004-0.114-0.004-0.171,0l-57.643-17.28
			c-4.515-1.355-9.273,1.207-10.628,5.722c-1.355,4.515,1.207,9.273,5.722,10.628l38.033,11.452l-154.923,83.516
			c2.921-56.613,11.968-112.743,26.982-167.407c1.544-5.178,0.533-10.782-2.722-15.095C321.836,2.506,316.765-0.03,311.386,0
			H200.632c-5.379-0.03-10.45,2.506-13.653,6.827c-3.261,4.317-4.271,9.929-2.722,15.113
			c15.577,56.912,24.764,115.381,27.392,174.327H85.355c-4.713,0-8.533,3.821-8.533,8.533c0,4.713,3.821,8.533,8.533,8.533h127.061
			c0.444,11.292,0.714,22.67,0.811,34.133H85.355c-4.713,0-8.533,3.82-8.533,8.533s3.821,8.533,8.533,8.533h127.872
			c-0.085,11.469-0.356,22.847-0.811,34.133H85.355c-4.713,0-8.533,3.821-8.533,8.533s3.821,8.533,8.533,8.533h126.293
			c-2.618,58.951-11.797,117.427-27.366,174.345c-1.532,5.161-0.538,10.743,2.681,15.059c3.219,4.316,8.285,6.86,13.669,6.863
			h110.78c5.384-0.004,10.45-2.548,13.669-6.863c3.219-4.316,4.212-9.897,2.681-15.059c-14.942-54.393-23.969-110.24-26.923-166.571
			l154.863,83.576l-38.05,11.409c-4.515,1.355-7.077,6.113-5.722,10.628c1.355,4.515,6.113,7.077,10.628,5.722l57.498-17.237
			c0.085,0,0.171,0,0.256-0.043c0.23-0.068,0.384-0.239,0.606-0.324c0.703-0.262,1.368-0.615,1.98-1.05
			c0.3-0.25,0.585-0.518,0.853-0.802c0.437-0.429,0.826-0.904,1.161-1.417c0.204-0.292,0.389-0.597,0.555-0.913
			c0.366-0.761,0.619-1.572,0.751-2.406c0-0.137,0.085-0.256,0.102-0.384v-0.051c0.089-1.016-0.009-2.04-0.29-3.021
			c0-0.085,0-0.171,0-0.256l-17.28-57.805c-0.844-2.956-3.213-5.229-6.201-5.951c-2.988-0.722-6.133,0.219-8.234,2.462
			c-2.101,2.244-2.832,5.444-1.915,8.378l11.366,38.025l-163.917-88.465c-0.569-12.897-0.913-25.913-1.033-39.049h184.073
			l-28.1,28.1c-2.218,2.143-3.108,5.315-2.327,8.299c0.781,2.983,3.111,5.314,6.094,6.094c2.983,0.781,6.156-0.109,8.299-2.327
			l42.667-42.667c0.077-0.077,0.102-0.179,0.171-0.256c0.714-0.728,1.292-1.577,1.707-2.509c0-0.068,0-0.145,0.051-0.222
			c0.322-0.864,0.501-1.775,0.529-2.697c0-0.29,0-0.563-0.043-0.853C511.885,254.761,511.739,254.036,511.501,253.338z
			 M200.666,494.874c16.61-60.997,26.142-123.703,28.407-186.88c0.065-0.262,0.116-0.527,0.154-0.794
			c0-0.171-0.085-0.316-0.094-0.486c0.777-16.717,1.289-33.647,1.289-50.714s-0.512-33.997-1.289-50.714
			c0-0.171,0.094-0.316,0.094-0.486c-0.038-0.258-0.089-0.515-0.154-0.768c-2.266-63.208-11.809-125.943-28.442-186.965
			l110.746,0.06c-16.566,60.822-26.089,123.346-28.382,186.342c-0.083,0.565-0.108,1.137-0.077,1.707
			c-0.785,16.734-1.297,33.673-1.297,50.825c0,17.493,0.529,34.765,1.34,51.857c0,0.179,0,0.358,0,0.538
			c2.295,63.065,11.841,125.657,28.45,186.539L200.666,494.874z"/>
	</g>
</g>
<g>
</g>
<g>
</g>
<g>
</g>
<g>
</g>
<g>
</g>
<g>
</g>
<g>
</g>
<g>
</g>
<g>
</g>
<g>
</g>
<g>
</g>
<g>
</g>
<g>
</g>
<g>
</g>
<g>
</g>
</svg>
