<svg height="512" viewBox="0 0 128 128" width="512" xmlns="http://www.w3.org/2000/svg"><g><path d="m101.219 118.241a5.438 5.438 0 0 1 -5.438-5.438v-7.883a5.438 5.438 0 0 1 5.438-5.437 5.437 5.437 0 0 1 5.437 5.437v7.88a5.438 5.438 0 0 1 -5.437 5.441z" fill="#d261e8"/><path d="m113.841 41.093a26.865 26.865 0 0 0 -22.041-23.756c-.166-.029-.331-.055-.5-.081a39.966 39.966 0 0 1 -18.984-8.518 31.688 31.688 0 0 0 -48.877 37.412c.122.277.228.561.346.839a10.78 10.78 0 1 0 5.281 20.636c.09.811.177 1.622.242 2.436l.027.31a26.61 26.61 0 0 0 5.134 13.385v37.054a5.438 5.438 0 0 0 10.875 0v-28.338a26.389 26.389 0 0 0 8.487 2.183c.8.066 1.6.094 2.388.092v14.441a5.438 5.438 0 0 0 10.875 0v-16.773a26.962 26.962 0 0 0 15.146-18.095 5 5 0 0 1 4.873-3.757h.043a26.781 26.781 0 0 0 8.625-1.423v16.423a5.438 5.438 0 0 0 10.875 0v-23.421a26.752 26.752 0 0 0 7.185-21.049z" fill="#d261e8"/><path d="m105.876 43.608a1.748 1.748 0 0 1 -1.74-1.582 17.2 17.2 0 0 0 -13.98-15.079l-.35-.056a1.751 1.751 0 0 1 .562-3.456l.366.06a20.754 20.754 0 0 1 16.886 18.195 1.751 1.751 0 0 1 -1.574 1.911c-.058.004-.114.007-.17.007z" fill="#a934c4"/></g></svg>