<?xml version="1.0" encoding="iso-8859-1"?>
<!-- Generator: Adobe Illustrator 19.0.0, SVG Export Plug-In . SVG Version: 6.00 Build 0)  -->
<svg version="1.1" id="Capa_1" xmlns="http://www.w3.org/2000/svg" xmlns:xlink="http://www.w3.org/1999/xlink" x="0px" y="0px"
	 viewBox="0 0 512 512" style="enable-background:new 0 0 512 512;" xml:space="preserve">
<g>
	<g transform="translate(3 7)">
		<g>
			<path style="fill:#6A1B9A;" d="M483.4,172.2c0,65.98-53.487,119.467-119.467,119.467c-4.275-0.01-8.548-0.238-12.8-0.683
				C290.439,284.468,244.42,233.243,244.42,172.2S290.439,59.932,351.133,53.416c4.252-0.445,8.525-0.673,12.8-0.683
				C429.913,52.733,483.4,106.22,483.4,172.2z"/>
			<path style="fill:#6A1B9A;" d="M167.667,368.467c0,37.703-30.564,68.267-68.267,68.267c-4.294-0.005-8.579-0.405-12.8-1.195
				c-32.225-6.109-55.551-34.273-55.551-67.072s23.326-60.963,55.551-67.072c4.221-0.79,8.506-1.19,12.8-1.195
				C137.103,300.2,167.667,330.764,167.667,368.467z"/>
		</g>
		<g>
			<ellipse style="fill:#9D27B0;" cx="351.133" cy="172.2" rx="106.667" ry="118.784"/>
			<ellipse style="fill:#9D27B0;" cx="86.6" cy="368.467" rx="55.467" ry="67.072"/>
		</g>
		<path style="fill:#AD1457;" d="M420.68,496.467H307.187c-2.691-0.019-5.215-1.306-6.811-3.473s-2.076-4.96-1.295-7.535
			l28.843-93.867c1.112-3.594,4.43-6.048,8.192-6.059h55.637c3.762,0.011,7.08,2.465,8.192,6.059l28.843,93.867
			c0.78,2.575,0.3,5.368-1.295,7.535C425.896,495.161,423.371,496.448,420.68,496.467z"/>
		<path style="fill:#E91E63;" d="M398.067,496.467h-90.88c-2.691-0.019-5.215-1.306-6.811-3.473s-2.076-4.96-1.295-7.535
			l28.843-93.867c1.112-3.594,4.43-6.048,8.192-6.059h33.024c3.762,0.011,7.08,2.465,8.192,6.059l28.928,93.867
			c0.785,2.59,0.295,5.398-1.321,7.569C403.322,495.199,400.773,496.475,398.067,496.467z"/>
	</g>
	<g>
		<path d="M503.467,0H8.533C3.821,0,0,3.821,0,8.533s3.821,8.533,8.533,8.533H25.6v358.4c0.882,41.421,34.459,74.677,75.886,75.16
			c41.428,0.484,75.772-31.979,77.62-73.368l63.317-168.849c12.909,54.669,59.933,94.548,115.977,98.355v27.238
			c-10.397,2.601-18.944,9.978-23.036,19.883c-4.092,9.905-3.245,21.164,2.283,30.345c-6.909,0.515-12.801,5.202-14.857,11.819
			l-28.885,93.867c-1.592,5.177-0.633,10.803,2.586,15.159c3.219,4.356,8.314,6.926,13.73,6.925h113.425
			c5.416,0.001,10.512-2.569,13.73-6.925c3.218-4.356,4.178-9.982,2.586-15.159l-28.885-93.867
			c-2.179-7.18-8.812-12.078-16.316-12.049h-27.827c-6.905,0.002-13.132-4.158-15.773-10.538c-2.642-6.38-1.178-13.724,3.707-18.604
			c6.758-6.432,17.374-6.432,24.132,0c2.141,2.22,5.313,3.112,8.297,2.333c2.984-0.779,5.316-3.107,6.099-6.09
			s-0.104-6.156-2.321-8.3c-4.32-4.277-9.711-7.313-15.607-8.789v-27.247c67.159-4.517,119.358-60.254,119.467-127.565V17.067h8.533
			c4.713,0,8.533-3.821,8.533-8.533S508.18,0,503.467,0z M423.646,494.933H310.221l28.885-93.867h55.654L423.646,494.933z
			 M102.4,435.2c-32.99,0-59.733-26.743-59.733-59.733s26.744-59.733,59.733-59.733s59.733,26.744,59.733,59.733
			C162.096,408.441,135.374,435.162,102.4,435.2z M375.467,289.698V179.2c0-4.713-3.82-8.533-8.533-8.533s-8.533,3.821-8.533,8.533
			v110.498c-59.429-4.585-104.612-55.313-102.318-114.874S307.328,68.16,366.933,68.16s108.557,47.102,110.851,106.664
			S434.896,285.113,375.467,289.698z M477.867,115.618c-27.71-48.485-83.683-73.376-138.246-61.477s-95.091,57.834-100.098,113.454
			l-0.051,0.077l-66.56,177.493c-10.607-24.738-33.405-42.106-60.071-45.762s-53.298,6.933-70.173,27.902V17.067h435.2V115.618z"/>
		<path d="M136.533,366.933c-4.713,0-8.533,3.821-8.533,8.533c0.014,6.791-2.69,13.306-7.509,18.091
			c-10.117,9.683-26.065,9.683-36.181,0c-7.312-7.321-9.498-18.324-5.539-27.884s13.283-15.797,23.63-15.806
			c4.713,0,8.533-3.821,8.533-8.533s-3.821-8.533-8.533-8.533c-23.564,0-42.667,19.103-42.667,42.667
			c0,23.564,19.103,42.667,42.667,42.667s42.667-19.103,42.667-42.667C145.067,370.754,141.246,366.933,136.533,366.933z"/>
		<path d="M366.933,85.333c-37.949,0.022-72.151,22.892-86.67,57.953s-6.499,75.416,20.324,102.261
			c3.348,3.234,8.671,3.188,11.962-0.104c3.292-3.292,3.338-8.614,0.104-11.962c-21.979-21.959-28.563-54.998-16.68-83.705
			s39.892-47.426,70.961-47.426s59.078,18.719,70.961,47.426c11.883,28.707,5.299,61.746-16.68,83.705
			c-2.218,2.143-3.108,5.315-2.327,8.299c0.781,2.983,3.111,5.313,6.094,6.094c2.984,0.781,6.156-0.109,8.299-2.327
			c26.823-26.845,34.843-67.199,20.324-102.261S404.882,85.355,366.933,85.333z"/>
		<path d="M366.933,145.067c-18.851,0-34.133,15.282-34.133,34.133c0,4.713,3.82,8.533,8.533,8.533s8.533-3.82,8.533-8.533
			c0-9.426,7.641-17.067,17.067-17.067S384,169.774,384,179.2c0,4.713,3.82,8.533,8.533,8.533s8.533-3.82,8.533-8.533
			C401.067,160.349,385.785,145.067,366.933,145.067z"/>
		<path d="M343.808,463.275c-1.558,1.636-2.442,3.8-2.475,6.059c0.015,0.572,0.072,1.143,0.171,1.707
			c0.093,0.535,0.266,1.052,0.512,1.536c0.186,0.544,0.445,1.06,0.768,1.536c0.315,0.447,0.657,0.875,1.024,1.28
			c3.365,3.3,8.752,3.3,12.117,0c1.572-1.627,2.458-3.796,2.475-6.059c0.02-3.467-2.059-6.601-5.261-7.931
			C349.937,460.073,346.249,460.813,343.808,463.275z"/>
		<path d="M376.149,472.576c0.186,0.544,0.445,1.06,0.768,1.536c0.315,0.447,0.657,0.875,1.024,1.28c3.365,3.3,8.752,3.3,12.117,0
			c1.572-1.627,2.458-3.796,2.475-6.059c0-4.713-3.82-8.533-8.533-8.533s-8.533,3.821-8.533,8.533
			c0.015,0.572,0.072,1.143,0.171,1.707C375.73,471.575,375.903,472.092,376.149,472.576z"/>
	</g>
</g>
<g>
</g>
<g>
</g>
<g>
</g>
<g>
</g>
<g>
</g>
<g>
</g>
<g>
</g>
<g>
</g>
<g>
</g>
<g>
</g>
<g>
</g>
<g>
</g>
<g>
</g>
<g>
</g>
<g>
</g>
</svg>
