<?xml version="1.0" encoding="iso-8859-1"?>
<!-- Generator: Adobe Illustrator 19.0.0, SVG Export Plug-In . SVG Version: 6.00 Build 0)  -->
<svg version="1.1" id="Capa_1" xmlns="http://www.w3.org/2000/svg" xmlns:xlink="http://www.w3.org/1999/xlink" x="0px" y="0px"
	 viewBox="0 0 512 512" style="enable-background:new 0 0 512 512;" xml:space="preserve">
<g>
	<g transform="translate(1 1)">
		<path style="fill:#F57C00;" d="M376.685,502.467H133.315c-3.039-0.018-5.84-1.652-7.352-4.289
			c-1.512-2.637-1.507-5.879,0.013-8.511l49.749-85.333c1.515-2.624,4.308-4.248,7.339-4.267h143.872
			c3.03,0.018,5.824,1.642,7.339,4.267l49.749,85.333c1.52,2.632,1.525,5.874,0.013,8.511
			C382.525,500.815,379.725,502.448,376.685,502.467z"/>
		<path style="fill:#FF9801;" d="M340.333,502.467H133.315c-3.039-0.018-5.84-1.652-7.352-4.289
			c-1.512-2.637-1.507-5.879,0.013-8.511l49.749-85.333c1.515-2.624,4.308-4.248,7.339-4.267h107.52
			c3.03,0.018,5.824,1.642,7.339,4.267l49.749,85.333c1.52,2.632,1.525,5.874,0.013,8.511
			C346.173,500.815,343.373,502.448,340.333,502.467z"/>
		<path style="fill:#FEC108;" d="M220.867,365.933v59.733c0,4.713,3.82,8.533,8.533,8.533h51.2c4.713,0,8.533-3.82,8.533-8.533
			v-409.6c0-4.713-3.821-8.533-8.533-8.533h-51.2c-4.713,0-8.533,3.821-8.533,8.533V365.933z"/>
		<path style="fill:#37474F;" d="M24.6,41.667h460.8c9.426,0,17.067,7.641,17.067,17.067v290.133
			c0,9.426-7.641,17.067-17.067,17.067H24.6c-9.426,0-17.067-7.641-17.067-17.067V58.733C7.533,49.308,15.174,41.667,24.6,41.667z"
			/>
		<path style="fill:#607D8B;" d="M24.6,41.667h435.2c9.426,0,17.067,7.641,17.067,17.067v290.133
			c0,9.426-7.641,17.067-17.067,17.067H24.6c-9.426,0-17.067-7.641-17.067-17.067V58.733C7.533,49.308,15.174,41.667,24.6,41.667z"
			/>
	</g>
	<g>
		<path d="M486.4,34.133H298.667V17.067C298.667,7.641,291.026,0,281.6,0h-51.2c-9.426,0-17.067,7.641-17.067,17.067v17.067H25.6
			c-14.138,0-25.6,11.462-25.6,25.6v290.133c0,14.138,11.462,25.6,25.6,25.6h187.733v17.067h-29.235
			c-6.065,0.012-11.671,3.232-14.737,8.465l-49.775,85.333c-3.08,5.278-3.103,11.8-0.06,17.099
			c3.043,5.299,8.686,8.568,14.797,8.569h243.354c6.111-0.001,11.755-3.27,14.797-8.569c3.043-5.299,3.02-11.821-0.06-17.099
			l-49.766-85.333c-3.07-5.233-8.678-8.453-14.746-8.465h-29.235v-17.067H486.4c14.138,0,25.6-11.462,25.6-25.6V59.733
			C512,45.595,500.539,34.133,486.4,34.133z M230.4,17.067h51.2v17.067h-51.2V17.067z M327.902,409.6l49.775,85.333H134.323
			l49.775-85.333h29.235v25.6c0,4.713,3.821,8.533,8.533,8.533h68.267c4.713,0,8.533-3.821,8.533-8.533v-25.6H327.902z
			 M281.6,426.667h-51.2v-51.2h51.2V426.667z M494.933,349.867c0,4.713-3.82,8.533-8.533,8.533H25.6
			c-4.713,0-8.533-3.821-8.533-8.533V59.733c0-4.713,3.821-8.533,8.533-8.533h460.8c4.713,0,8.533,3.821,8.533,8.533V349.867z"/>
		<path d="M59.733,68.267H42.667c-4.713,0-8.533,3.821-8.533,8.533c0,4.713,3.821,8.533,8.533,8.533h17.067
			c4.713,0,8.533-3.82,8.533-8.533C68.267,72.087,64.446,68.267,59.733,68.267z"/>
		<path d="M256,76.8c0-4.713-3.82-8.533-8.533-8.533h-153.6c-4.713,0-8.533,3.821-8.533,8.533c0,4.713,3.821,8.533,8.533,8.533
			h153.6C252.18,85.333,256,81.513,256,76.8z"/>
		<path d="M469.333,324.267h-17.067c-4.713,0-8.533,3.82-8.533,8.533s3.82,8.533,8.533,8.533h17.067c4.713,0,8.533-3.82,8.533-8.533
			S474.046,324.267,469.333,324.267z"/>
		<path d="M418.133,324.267h-153.6c-4.713,0-8.533,3.82-8.533,8.533s3.821,8.533,8.533,8.533h153.6c4.713,0,8.533-3.82,8.533-8.533
			S422.846,324.267,418.133,324.267z"/>
		<path d="M119.467,170.667c4.713,0,8.533-3.821,8.533-8.533c0-4.713-3.821-8.533-8.533-8.533H85.333
			c-9.426,0-17.067,7.641-17.067,17.067v68.267c0,9.426,7.641,17.067,17.067,17.067h34.133c4.713,0,8.533-3.82,8.533-8.533
			c0-4.713-3.821-8.533-8.533-8.533H85.333v-25.6h25.6c4.713,0,8.533-3.821,8.533-8.533c0-4.713-3.821-8.533-8.533-8.533h-25.6
			v-25.6H119.467z"/>
		<path d="M187.733,179.2H153.6c-4.713,0-8.533,3.821-8.533,8.533c0,4.713,3.82,8.533,8.533,8.533h34.133
			c4.713,0,8.533-3.821,8.533-8.533C196.267,183.021,192.446,179.2,187.733,179.2z"/>
		<path d="M187.733,213.333H153.6c-4.713,0-8.533,3.821-8.533,8.533c0,4.713,3.82,8.533,8.533,8.533h34.133
			c4.713,0,8.533-3.821,8.533-8.533C196.267,217.154,192.446,213.333,187.733,213.333z"/>
		<path d="M267.255,209.69l14.345-20.489v58.266c0,4.713,3.821,8.533,8.533,8.533c4.713,0,8.533-3.82,8.533-8.533v-85.333
			c-0.003-3.723-2.419-7.014-5.969-8.132c-3.551-1.118-7.417,0.194-9.553,3.243l-22.878,32.674l-22.878-32.674
			c-2.136-3.049-6.002-4.361-9.553-3.243c-3.551,1.118-5.967,4.41-5.969,8.132v85.333c0,4.713,3.82,8.533,8.533,8.533
			s8.533-3.82,8.533-8.533v-58.266l14.345,20.48c1.673,2.162,4.253,3.429,6.987,3.431C262.999,213.114,265.58,211.85,267.255,209.69
			z"/>
		<path d="M320.717,250.982c3.197,3.217,7.548,5.023,12.083,5.018h34.133c2.285-0.002,4.548-0.457,6.656-1.34
			c4.08-1.742,7.328-4.996,9.062-9.079c0.894-2.102,1.353-4.363,1.348-6.647V230.4c0-4.713-3.821-8.533-8.533-8.533
			c-4.713,0-8.533,3.82-8.533,8.533v8.533H332.8v-68.267h34.133v8.533c0,4.713,3.821,8.533,8.533,8.533
			c4.713,0,8.533-3.82,8.533-8.533v-8.533c0-9.426-7.641-17.067-17.067-17.067H332.8c-2.285,0.002-4.548,0.457-6.656,1.34
			c-4.08,1.742-7.328,4.996-9.062,9.079c-0.894,2.102-1.353,4.363-1.348,6.647v68.267
			C315.734,243.451,317.526,247.784,320.717,250.982z"/>
		<path d="M409.6,162.133c4.713,0,8.533-3.821,8.533-8.533v-2.56c0-3.299,2.674-5.973,5.973-5.973
			c2.229,0.009,4.268,1.26,5.288,3.242c1.019,1.983,0.849,4.368-0.441,6.187l-26.291,36.813c-1.856,2.6-2.104,6.019-0.643,8.86
			c1.461,2.841,4.386,4.628,7.581,4.631h34.133c4.713,0,8.533-3.821,8.533-8.533s-3.821-8.533-8.533-8.533H426.18l16.7-23.313
			c5.769-8.108,5.68-19.003-0.219-27.016s-16.276-11.334-25.732-8.234c-9.455,3.1-15.852,11.919-15.863,21.87v2.56
			C401.067,158.313,404.887,162.133,409.6,162.133z"/>
	</g>
</g>
<g>
</g>
<g>
</g>
<g>
</g>
<g>
</g>
<g>
</g>
<g>
</g>
<g>
</g>
<g>
</g>
<g>
</g>
<g>
</g>
<g>
</g>
<g>
</g>
<g>
</g>
<g>
</g>
<g>
</g>
</svg>
