<svg height="512" viewBox="0 0 128 128" width="512" xmlns="http://www.w3.org/2000/svg"><g><path d="m101.219 97.732a7.2 7.2 0 0 0 -7.188 7.188v7.88a7.188 7.188 0 0 0 14.375 0v-7.88a7.2 7.2 0 0 0 -7.187-7.188zm3.687 15.071a3.688 3.688 0 0 1 -7.375 0v-7.883a3.688 3.688 0 1 1 7.375 0z"/><path d="m115.583 40.925a28.51 28.51 0 0 0 -23.489-25.313l-.527-.086a38.364 38.364 0 0 1 -18.153-8.151 33.433 33.433 0 0 0 -54.246 23 33.747 33.747 0 0 0 2.177 15.3 12.534 12.534 0 0 0 6.2 24.277c.007.084.015.168.021.253l.028.328a28.376 28.376 0 0 0 5.127 13.791v36.486a7.188 7.188 0 0 0 14.375 0v-25.783a27.676 27.676 0 0 0 6.589 1.373c.258.022.52.04.784.054v12.736a7.188 7.188 0 0 0 14.375 0v-15.666a28.87 28.87 0 0 0 15.1-18.785 3.248 3.248 0 0 1 3.217-2.426 28.6 28.6 0 0 0 6.875-.837v14.087a7.188 7.188 0 0 0 14.375 0v-22.739a28.66 28.66 0 0 0 7.172-21.899zm-10.2 20.015a1.752 1.752 0 0 0 -.478 1.2v23.423a3.688 3.688 0 0 1 -7.375 0v-16.423a1.75 1.75 0 0 0 -2.313-1.658 25.052 25.052 0 0 1 -8.105 1.331 6.727 6.727 0 0 0 -6.571 5.087 25.334 25.334 0 0 1 -14.162 16.918 1.752 1.752 0 0 0 -1.035 1.6v16.772a3.688 3.688 0 0 1 -7.375 0v-14.443a1.751 1.751 0 0 0 -1.75-1.747h-.007c-.764-.008-1.516-.026-2.237-.087a24.617 24.617 0 0 1 -7.925-2.039 1.75 1.75 0 0 0 -2.456 1.6v28.336a3.688 3.688 0 0 1 -7.375 0v-37.054a1.745 1.745 0 0 0 -.343-1.039 24.913 24.913 0 0 1 -4.8-12.5l-.025-.3c-.067-.831-.156-1.659-.247-2.486a1.751 1.751 0 0 0 -1.74-1.559 1.732 1.732 0 0 0 -.691.143 9.031 9.031 0 1 1 -4.423-17.284 1.749 1.749 0 0 0 1.45-2.425l-.138-.339c-.07-.174-.14-.348-.216-.52a29.936 29.936 0 0 1 46.173-35.347 41.869 41.869 0 0 0 19.817 8.883l.465.076a25.055 25.055 0 0 1 13.883 41.881z"/><path d="m90.734 23.5-.366-.06a1.751 1.751 0 0 0 -.562 3.456l.35.056a17.2 17.2 0 0 1 13.98 15.079 1.748 1.748 0 0 0 1.74 1.582c.056 0 .112 0 .17-.007a1.751 1.751 0 0 0 1.574-1.911 20.754 20.754 0 0 0 -16.886-18.195z"/></g></svg>