<?xml version="1.0" encoding="iso-8859-1"?>
<!-- Generator: Adobe Illustrator 19.0.0, SVG Export Plug-In . SVG Version: 6.00 Build 0)  -->
<svg version="1.1" id="Capa_1" xmlns="http://www.w3.org/2000/svg" xmlns:xlink="http://www.w3.org/1999/xlink" x="0px" y="0px"
	 viewBox="0 0 512 512" style="enable-background:new 0 0 512 512;" xml:space="preserve">
<g>
	<g transform="translate(1 1)">
		<path style="fill:#607D8B;" d="M280.54,24.6v59.733H144.007V24.6c0.028-9.414,7.653-17.039,17.067-17.067h102.4
			C272.888,7.561,280.512,15.186,280.54,24.6z"/>
		<path style="fill:#CFD8DC;" d="M254.94,24.6v59.733H144.007V24.6c0.028-9.414,7.653-17.039,17.067-17.067h76.8
			C247.288,7.561,254.912,15.186,254.94,24.6z"/>
		<path style="fill:#F57C00;" d="M58.674,58.733h307.2c4.713,0,8.533,3.821,8.533,8.533v426.667c0,4.713-3.82,8.533-8.533,8.533
			h-307.2c-4.713,0-8.533-3.821-8.533-8.533V67.267C50.14,62.554,53.961,58.733,58.674,58.733z"/>
		<path style="fill:#FF9801;" d="M58.674,58.733h281.6c4.713,0,8.533,3.821,8.533,8.533v426.667c0,4.713-3.82,8.533-8.533,8.533
			h-281.6c-4.713,0-8.533-3.821-8.533-8.533V67.267C50.14,62.554,53.961,58.733,58.674,58.733z"/>
		<path style="fill:#9E9E9E;" d="M92.807,92.867H331.74c4.713,0,8.533,3.821,8.533,8.533v358.4c0,4.713-3.82,8.533-8.533,8.533
			H92.807c-4.713,0-8.533-3.82-8.533-8.533V101.4C84.274,96.687,88.094,92.867,92.807,92.867z"/>
		<path style="fill:#F5F5F5;" d="M92.807,92.867H306.14c4.713,0,8.533,3.821,8.533,8.533v358.4c0,4.713-3.82,8.533-8.533,8.533
			H92.807c-4.713,0-8.533-3.82-8.533-8.533V101.4C84.274,96.687,88.094,92.867,92.807,92.867z"/>
		<path style="fill:#00838F;" d="M340.274,280.6c0,37.703-30.564,68.267-68.267,68.267c-4.294-0.005-8.579-0.405-12.8-1.195
			c-32.225-6.109-55.551-34.273-55.551-67.072s23.326-60.963,55.551-67.072c4.221-0.79,8.506-1.19,12.8-1.195
			C309.71,212.333,340.274,242.897,340.274,280.6z"/>
		<g>
			<ellipse style="fill:#00BCD4;" cx="259.207" cy="280.6" rx="55.467" ry="67.072"/>
			<circle style="fill:#00BCD4;" cx="434.14" cy="118.467" r="25.6"/>
			<circle style="fill:#00BCD4;" cx="169.607" cy="178.2" r="25.6"/>
			<circle style="fill:#00BCD4;" cx="434.14" cy="280.6" r="25.6"/>
			<circle style="fill:#00BCD4;" cx="434.14" cy="442.733" r="25.6"/>
			<circle style="fill:#00BCD4;" cx="169.607" cy="383" r="25.6"/>
		</g>
	</g>
	<g>
		<path d="M136.474,51.2h-76.8c-9.426,0-17.067,7.641-17.067,17.067v426.667c0,9.426,7.641,17.067,17.067,17.067h307.2
			c9.426,0,17.067-7.641,17.067-17.067V435.2c0-4.713-3.82-8.533-8.533-8.533s-8.533,3.82-8.533,8.533v59.733h-307.2V68.267h307.2
			V128c0,4.713,3.82,8.533,8.533,8.533s8.533-3.821,8.533-8.533V68.267c0-9.426-7.641-17.067-17.067-17.067h-76.8V25.6
			c0-14.138-11.461-25.6-25.6-25.6c-4.713,0-8.533,3.821-8.533,8.533s3.821,8.533,8.533,8.533c4.713,0,8.533,3.821,8.533,8.533v25.6
			H153.54V25.6c0-4.713,3.821-8.533,8.533-8.533h59.733c4.713,0,8.533-3.821,8.533-8.533S226.52,0,221.807,0h-59.733
			c-14.138,0-25.6,11.462-25.6,25.6V51.2z"/>
		<path d="M85.274,179.2c-4.713,0-8.533,3.821-8.533,8.533V460.8c0,9.426,7.641,17.067,17.067,17.067H332.74
			c9.426,0,17.067-7.641,17.067-17.067v-68.267c0-4.713-3.82-8.533-8.533-8.533s-8.533,3.82-8.533,8.533V460.8H93.807V187.733
			C93.807,183.021,89.986,179.2,85.274,179.2z"/>
		<path d="M341.274,179.2c4.713,0,8.533-3.821,8.533-8.533V102.4c0-9.426-7.641-17.067-17.067-17.067H93.807
			c-9.426,0-17.067,7.641-17.067,17.067v42.667c0,4.713,3.821,8.533,8.533,8.533s8.533-3.821,8.533-8.533V102.4H332.74v68.267
			C332.74,175.38,336.561,179.2,341.274,179.2z"/>
		<path d="M332.954,233.719l84.958-84.958c5.202,3.137,11.155,4.809,17.229,4.838c18.851,0,34.133-15.282,34.133-34.133
			s-15.282-34.133-34.133-34.133c-18.851,0-34.133,15.282-34.133,34.133c0.03,6.074,1.702,12.027,4.838,17.229l-84.958,84.958
			c-27.966-22.471-67.795-22.471-95.761,0l-25.225-25.225c3.137-5.202,4.809-11.155,4.838-17.229
			c0-18.851-15.282-34.133-34.133-34.133s-34.133,15.282-34.133,34.133s15.282,34.133,34.133,34.133
			c6.074-0.03,12.027-1.702,17.229-4.838l25.225,25.225c-22.471,27.966-22.471,67.795,0,95.761l-25.225,25.225
			c-5.202-3.137-11.155-4.809-17.229-4.838c-18.851,0-34.133,15.282-34.133,34.133c0,18.851,15.282,34.133,34.133,34.133
			S204.74,402.851,204.74,384c-0.03-6.074-1.702-12.027-4.838-17.229l25.225-25.225c27.966,22.471,67.795,22.471,95.761,0
			l84.958,84.958c-3.137,5.202-4.809,11.155-4.838,17.229c0,18.851,15.282,34.133,34.133,34.133
			c18.851,0,34.133-15.282,34.133-34.133c0-18.851-15.282-34.133-34.133-34.133c-6.074,0.03-12.027,1.702-17.229,4.838
			l-84.958-84.958c9.07-11.301,14.74-24.947,16.35-39.347h52.907c4.297,16.643,20.299,27.494,37.35,25.328
			c17.051-2.166,29.832-16.673,29.832-33.861s-12.781-31.695-29.832-33.861c-17.051-2.166-33.053,8.685-37.35,25.328h-52.907
			C347.694,258.666,342.024,245.02,332.954,233.719z M435.14,102.4c7.725-0.006,14.49,5.178,16.494,12.639
			c2.004,7.46-1.252,15.337-7.94,19.203c-6.688,3.866-15.138,2.759-20.604-2.7c-4.883-4.878-6.348-12.217-3.71-18.596
			C422.018,106.567,428.238,102.405,435.14,102.4z M153.54,179.2c-0.006-7.725,5.178-14.49,12.639-16.494
			c7.46-2.004,15.337,1.252,19.203,7.94c3.866,6.688,2.759,15.138-2.7,20.604c-4.878,4.883-12.217,6.348-18.596,3.71
			C157.707,192.322,153.545,186.102,153.54,179.2z M170.607,401.067c-7.725,0.005-14.49-5.178-16.494-12.639
			s1.252-15.337,7.94-19.203c6.688-3.866,15.138-2.759,20.604,2.7c4.883,4.878,6.348,12.217,3.71,18.596
			C183.729,396.9,177.509,401.062,170.607,401.067z M213.274,281.6c0-24.16,14.554-45.941,36.874-55.186
			c22.321-9.246,48.013-4.135,65.097,12.949c17.084,17.084,22.194,42.776,12.949,65.097c-9.246,22.321-31.027,36.874-55.186,36.874
			C240.033,341.296,213.311,314.574,213.274,281.6z M452.207,443.733c0.005,7.725-5.178,14.49-12.639,16.494
			c-7.46,2.004-15.337-1.252-19.203-7.94c-3.866-6.688-2.759-15.138,2.7-20.604c4.878-4.883,12.217-6.348,18.596-3.71
			C448.04,430.611,452.202,436.831,452.207,443.733z M435.14,264.533c9.426,0,17.067,7.641,17.067,17.067
			s-7.641,17.067-17.067,17.067s-17.067-7.641-17.067-17.067S425.715,264.533,435.14,264.533z"/>
	</g>
</g>
<g>
</g>
<g>
</g>
<g>
</g>
<g>
</g>
<g>
</g>
<g>
</g>
<g>
</g>
<g>
</g>
<g>
</g>
<g>
</g>
<g>
</g>
<g>
</g>
<g>
</g>
<g>
</g>
<g>
</g>
</svg>
