<?xml version="1.0" encoding="iso-8859-1"?>
<!-- Generator: Adobe Illustrator 19.0.0, SVG Export Plug-In . SVG Version: 6.00 Build 0)  -->
<svg version="1.1" id="Capa_1" xmlns="http://www.w3.org/2000/svg" xmlns:xlink="http://www.w3.org/1999/xlink" x="0px" y="0px"
	 viewBox="0 0 504.58 504.58" style="enable-background:new 0 0 504.58 504.58;" xml:space="preserve">
<g transform="translate(0 -1)">
	<g transform="translate(1 2)">
		<path style="fill:#2E7D32;" d="M495.22,398.181c0.009,9.289-7.498,16.834-16.787,16.871H24.18
			c-9.26-0.028-16.759-7.527-16.787-16.787V196.822c0,58.334,102.148,106.009,230.736,108.947h0.168
			c4.113,0.084,8.309,0.168,12.506,0.168c95.937,0,178.864-24.845,218.565-61.104c14.797-11.688,23.849-29.18,24.845-48.01h0.168
			L495.22,398.181z"/>
		<path style="fill:#4CAF50;" d="M470.04,398.181c0.009,9.289-7.498,16.834-16.787,16.871H24.18
			c-9.26-0.028-16.759-7.527-16.787-16.787V245.168c8.925,7.932,18.757,14.778,29.293,20.396l0.084,0.084
			c44.569,24.593,112.64,40.289,188.852,40.289c4.197,0,8.393-0.084,12.506-0.168h0.168c4.113,0.084,8.309,0.168,12.506,0.168
			c95.937,0,178.864-24.845,218.565-61.104l0.084,16.787L470.04,398.181z"/>
		<path style="fill:#9E9D24;" d="M494.381,213.609h-0.168c-1.016,18.806-10.027,36.279-24.761,48.01l-0.084-16.787l-0.084-25.012
			c14.812-11.759,23.886-29.294,24.929-48.178L494.381,213.609z"/>
		<path style="fill:#CDDC39;" d="M469.452,261.619c-39.617,36.176-122.628,61.104-218.649,61.104
			c-92.412,0-172.821-23.082-214.033-57.075l-0.084-0.084C17.969,250.12,7.393,232.41,7.393,213.609v-41.967
			c0,60.265,108.947,109.115,243.41,109.115c87.963,0,165.015-20.9,207.822-52.291c3.708-2.685,7.267-5.571,10.66-8.645
			l0.084,25.012L469.452,261.619z"/>
		<path style="fill:#AD1457;" d="M347.328,184.232c0,53.309-43.216,96.525-96.525,96.525c-4.041,0.005-8.078-0.248-12.087-0.755
			c-48.268-6.074-84.472-47.12-84.472-95.769s36.204-89.695,84.472-95.769c4.009-0.508,8.046-0.76,12.087-0.755
			C304.112,87.707,347.328,130.923,347.328,184.232z"/>
		<path style="fill:#E91E63;" d="M323.155,184.232c0.002,48.637-36.183,89.679-84.438,95.769
			c-48.268-6.074-84.472-47.12-84.472-95.769s36.204-89.695,84.472-95.769C287.005,94.489,323.224,135.569,323.155,184.232z"/>
	</g>
	<g>
		<path d="M495.213,165.248c-4.636,0-8.393,3.758-8.393,8.393c0,45.425-74.525,84.958-172.905,96.969
			c36.551-26.849,51.714-74.143,37.587-117.239s-54.346-72.236-99.698-72.236s-85.571,29.14-99.698,72.236
			c-14.127,43.096,1.035,90.391,37.587,117.239C91.312,258.6,16.787,219.067,16.787,173.642c0-4.636-3.758-8.393-8.393-8.393
			S0,169.006,0,173.642v226.623c0,13.907,11.274,25.18,25.18,25.18H479.4c6.697,0,13.118-2.668,17.844-7.414
			c4.725-4.746,7.366-11.179,7.336-17.876l-0.974-226.514C503.607,169.006,499.849,165.248,495.213,165.248z M163.672,186.232
			c0-48.673,39.458-88.131,88.131-88.131s88.131,39.458,88.131,88.131s-39.458,88.131-88.131,88.131
			C203.153,274.307,163.728,234.882,163.672,186.232z M251.803,291.15c108.468,0,198.874-30.468,234.949-74.467
			c-1.402,54.129-108.393,99.647-234.949,99.647S18.306,270.829,16.854,216.717C52.954,260.69,143.36,291.15,251.803,291.15z
			 M485.351,406.19c-1.572,1.589-3.716,2.478-5.951,2.468H25.18c-4.636,0-8.393-3.758-8.393-8.393V258.516
			c36.016,44.066,126.439,74.601,235.016,74.601c108.938,0,199.604-30.737,235.377-75.037l0.613,142.185
			C487.801,402.486,486.921,404.619,485.351,406.19z"/>
		<path d="M317.742,158.911c-15.089-36.417-56.842-53.707-93.26-38.618s-53.707,56.842-38.618,93.26
			c1.105,2.834,3.656,4.848,6.669,5.265c3.013,0.417,6.016-0.828,7.849-3.255c1.833-2.427,2.21-5.656,0.985-8.44
			c-9.91-23.999-1.495-51.657,20.101-66.07s50.366-11.572,68.726,6.788c18.36,18.36,21.201,47.129,6.788,68.726
			c-14.413,21.597-42.071,30.011-66.07,20.101c-2.784-1.225-6.013-0.848-8.44,0.985c-2.427,1.833-3.672,4.836-3.255,7.849
			c0.417,3.013,2.432,5.564,5.265,6.669c26.67,11.012,57.346,4.892,77.748-15.511C322.634,216.257,328.754,185.581,317.742,158.911z
			"/>
		<path d="M402.885,375.084H235.016c-4.636,0-8.393,3.758-8.393,8.393s3.758,8.393,8.393,8.393h167.869
			c4.636,0,8.393-3.758,8.393-8.393S407.521,375.084,402.885,375.084z"/>
		<path d="M461.639,375.084h-25.18c-4.636,0-8.393,3.758-8.393,8.393s3.758,8.393,8.393,8.393h25.18
			c4.636,0,8.393-3.758,8.393-8.393S466.275,375.084,461.639,375.084z"/>
	</g>
</g>
<g>
</g>
<g>
</g>
<g>
</g>
<g>
</g>
<g>
</g>
<g>
</g>
<g>
</g>
<g>
</g>
<g>
</g>
<g>
</g>
<g>
</g>
<g>
</g>
<g>
</g>
<g>
</g>
<g>
</g>
</svg>
