<?xml version="1.0" encoding="iso-8859-1"?>
<!-- Generator: Adobe Illustrator 19.0.0, SVG Export Plug-In . SVG Version: 6.00 Build 0)  -->
<svg version="1.1" id="Capa_1" xmlns="http://www.w3.org/2000/svg" xmlns:xlink="http://www.w3.org/1999/xlink" x="0px" y="0px"
	 viewBox="0 0 512 512" style="enable-background:new 0 0 512 512;" xml:space="preserve">
<g>
	<g transform="translate(1 1)">
		<path style="fill:#607D8B;" d="M323.267,24.6v59.733H186.733V24.6c0.028-9.414,7.653-17.039,17.067-17.067h102.4
			C315.614,7.561,323.239,15.186,323.267,24.6z"/>
		<path style="fill:#CFD8DC;" d="M297.667,24.6v59.733H186.733V24.6c0.028-9.414,7.653-17.039,17.067-17.067h76.8
			C290.014,7.561,297.639,15.186,297.667,24.6z"/>
		<path style="fill:#F57C00;" d="M101.4,58.733h307.2c4.713,0,8.533,3.821,8.533,8.533v426.667c0,4.713-3.821,8.533-8.533,8.533
			H101.4c-4.713,0-8.533-3.821-8.533-8.533V67.267C92.867,62.554,96.687,58.733,101.4,58.733z"/>
		<path style="fill:#FF9801;" d="M101.4,58.733H383c4.713,0,8.533,3.821,8.533,8.533v426.667c0,4.713-3.82,8.533-8.533,8.533H101.4
			c-4.713,0-8.533-3.821-8.533-8.533V67.267C92.867,62.554,96.687,58.733,101.4,58.733z"/>
		<path style="fill:#9E9E9E;" d="M135.533,92.867h238.933c4.713,0,8.533,3.821,8.533,8.533v358.4c0,4.713-3.821,8.533-8.533,8.533
			H135.533c-4.713,0-8.533-3.82-8.533-8.533V101.4C127,96.687,130.821,92.867,135.533,92.867z"/>
		<path style="fill:#F5F5F5;" d="M135.533,92.867h213.333c4.713,0,8.533,3.821,8.533,8.533v358.4c0,4.713-3.821,8.533-8.533,8.533
			H135.533c-4.713,0-8.533-3.82-8.533-8.533V101.4C127,96.687,130.821,92.867,135.533,92.867z"/>
		<ellipse style="fill:#00BCD4;" cx="255" cy="220.867" rx="34.133" ry="76.8"/>
		
			<ellipse transform="matrix(-0.5 -0.866 0.866 -0.5 191.2322 552.1373)" style="fill:#E91E63;" cx="255.005" cy="220.865" rx="34.133" ry="76.8"/>
		<path style="fill:#FEC108;" d="M229.4,263.533c-6.733-3.413-2.79-19.294-8.533-23.194c-26.556-18.048-41.421-40.201-34.449-54.042
			c7.33-14.507,36.386-15.155,68.582-2.739c5.069,1.954,20.48-7.953,25.6-5.359c6.733,3.413,2.79,19.294,8.533,23.194
			c26.556,18.048,41.421,40.201,34.449,54.042c-7.33,14.507-36.386,15.155-68.582,2.739
			C249.931,256.22,234.52,266.093,229.4,263.533z"/>
	</g>
	<g>
		<path d="M204.8,17.067h59.733c4.713,0,8.533-3.821,8.533-8.533S269.246,0,264.533,0H204.8c-14.139,0-25.6,11.462-25.6,25.6v25.6
			h-76.8c-9.426,0-17.067,7.641-17.067,17.067v426.667c0,9.426,7.641,17.067,17.067,17.067h307.2
			c9.426,0,17.067-7.641,17.067-17.067V435.2c0-4.713-3.82-8.533-8.533-8.533s-8.533,3.82-8.533,8.533v59.733H102.4V68.267h307.2
			v324.267c0,4.713,3.82,8.533,8.533,8.533s8.533-3.82,8.533-8.533V68.267c0-9.426-7.641-17.067-17.067-17.067h-76.8V25.6
			c0-14.138-11.462-25.6-25.6-25.6c-4.713,0-8.533,3.821-8.533,8.533s3.82,8.533,8.533,8.533s8.533,3.821,8.533,8.533v25.6H196.267
			V25.6C196.267,20.887,200.087,17.067,204.8,17.067z"/>
		<path d="M128,179.2c-4.713,0-8.533,3.821-8.533,8.533V460.8c0,9.426,7.641,17.067,17.067,17.067h238.933
			c9.426,0,17.067-7.641,17.067-17.067V102.4c0-9.426-7.641-17.067-17.067-17.067H136.533c-9.426,0-17.067,7.641-17.067,17.067
			v42.667c0,4.713,3.821,8.533,8.533,8.533c4.713,0,8.533-3.821,8.533-8.533V102.4h238.933v358.4H136.533V187.733
			C136.533,183.021,132.713,179.2,128,179.2z"/>
		<path d="M182.118,264.533c5.367,9.387,16.555,14.336,31.693,14.336c3.236-0.038,6.467-0.266,9.677-0.683
			C231.364,296.704,242.961,307.2,256,307.2c13.039,0,24.627-10.513,32.512-29.013c3.212,0.414,6.447,0.639,9.685,0.674
			c15.13,0,26.317-4.932,31.659-14.285c6.545-11.281,3.243-26.59-8.841-42.667c12.092-16.094,15.36-31.403,8.866-42.667
			s-21.333-16.094-41.37-13.653c-7.876-18.534-19.482-29.056-32.512-29.056c-13.03,0-24.627,10.513-32.512,29.013
			c-20.028-2.432-34.927,2.364-41.344,13.653s-3.243,26.59,8.841,42.667C178.893,237.961,175.599,253.269,182.118,264.533z
			 M196.907,256c-2.56-4.395-0.29-12.245,5.709-21.077c3.96,3.812,8.127,7.401,12.484,10.752c0.713,5.353,1.733,10.661,3.055,15.898
			C207.428,262.357,199.441,260.42,196.907,256z M228.062,209.621c0.06,0,0.085-0.111,0.137-0.154
			c0.423-0.384,0.806-0.81,1.143-1.271c0.388-0.377,0.743-0.789,1.058-1.229c0.152-0.358,0.28-0.726,0.384-1.101
			c0.303-0.652,0.521-1.34,0.649-2.048c0-0.051,0.043-0.094,0.051-0.154c0.71-6.176,1.876-12.292,3.49-18.295
			c6.014,1.611,11.898,3.67,17.604,6.161c0.068,0,0.137,0,0.196,0c1.077,0.262,2.165,0.481,3.26,0.657
			c0.455-0.047,0.905-0.127,1.348-0.239c0.645-0.07,1.28-0.21,1.894-0.418c0.06,0,0.128,0,0.196,0
			c5.706-2.491,11.59-4.55,17.604-6.161c1.612,6.004,2.779,12.119,3.49,18.295c0,0.06,0.043,0.102,0.051,0.162
			c0.1,0.463,0.237,0.916,0.41,1.357c0.139,0.588,0.34,1.16,0.597,1.707c0.217,0.321,0.456,0.626,0.717,0.913
			c0.392,0.57,0.856,1.087,1.382,1.536c0.094,0.077,0.137,0.196,0.239,0.273c5.07,3.747,9.875,7.842,14.379,12.254
			c-4.512,4.418-9.325,8.519-14.404,12.271c-0.051,0-0.077,0.094-0.119,0.128c-0.455,0.407-0.864,0.862-1.22,1.357
			c-0.356,0.35-0.679,0.733-0.964,1.143c-0.157,0.364-0.29,0.737-0.401,1.118c-0.3,0.647-0.515,1.329-0.64,2.031
			c0,0.051,0,0.094-0.051,0.154c-0.71,6.176-1.876,12.292-3.49,18.295c-6.014-1.611-11.898-3.67-17.604-6.161
			c-0.06,0-0.128,0-0.188,0c-0.639-0.216-1.3-0.36-1.971-0.427c-0.422-0.122-0.853-0.211-1.289-0.265
			c-0.499,0.04-0.993,0.125-1.476,0.256c-0.604,0.069-1.198,0.201-1.775,0.393c-0.068,0-0.145,0-0.213,0
			c-5.706,2.491-11.59,4.55-17.604,6.161c-1.612-6.004-2.779-12.119-3.49-18.295c0-0.06,0-0.102-0.051-0.154
			c-0.132-0.76-0.367-1.498-0.7-2.193c-0.092-0.319-0.203-0.633-0.333-0.939c-0.696-0.853-1.419-1.684-2.167-2.492
			c-0.06,0-0.085-0.111-0.145-0.154c-5.07-3.742-9.877-7.827-14.387-12.228c4.51-4.418,9.323-8.515,14.404-12.262V209.621z
			 M256,290.133c-5.12,0-10.761-5.905-15.36-15.497c5.217-1.509,10.345-3.309,15.36-5.393c5.015,2.084,10.143,3.884,15.36,5.393
			C266.752,284.237,261.12,290.133,256,290.133z M315.068,256c-2.517,4.395-10.505,6.323-21.222,5.521
			c1.321-5.237,2.344-10.545,3.063-15.898c4.35-3.352,8.515-6.939,12.476-10.743C315.375,243.738,317.636,251.597,315.068,256z
			 M315.068,187.733c2.56,4.395,0.29,12.245-5.709,21.077c-3.96-3.812-8.127-7.401-12.484-10.752
			c-0.713-5.356-1.733-10.667-3.055-15.906c10.752-0.785,18.739,1.161,21.274,5.581H315.068z M256,153.6
			c5.12,0,10.761,5.905,15.36,15.497c-5.217,1.509-10.345,3.309-15.36,5.393c-5.015-2.084-10.143-3.884-15.36-5.393
			C245.248,159.497,250.88,153.6,256,153.6z M196.932,187.733c2.56-4.395,10.496-6.34,21.222-5.53
			c-1.322,5.24-2.345,10.55-3.063,15.906c-4.35,3.352-8.515,6.939-12.476,10.743C196.625,199.996,194.364,192.137,196.932,187.733z"
			/>
		<path d="M153.6,349.867c0,4.713,3.82,8.533,8.533,8.533h59.733c4.713,0,8.533-3.821,8.533-8.533c0-4.713-3.821-8.533-8.533-8.533
			h-59.733C157.421,341.333,153.6,345.154,153.6,349.867z"/>
		<path d="M349.867,341.333H256c-4.713,0-8.533,3.821-8.533,8.533c0,4.713,3.821,8.533,8.533,8.533h93.867
			c4.713,0,8.533-3.821,8.533-8.533C358.4,345.154,354.579,341.333,349.867,341.333z"/>
		<path d="M162.133,426.667h59.733c4.713,0,8.533-3.82,8.533-8.533s-3.821-8.533-8.533-8.533h-59.733
			c-4.713,0-8.533,3.82-8.533,8.533S157.421,426.667,162.133,426.667z"/>
		<path d="M349.867,409.6H256c-4.713,0-8.533,3.82-8.533,8.533s3.821,8.533,8.533,8.533h93.867c4.713,0,8.533-3.82,8.533-8.533
			S354.579,409.6,349.867,409.6z"/>
		<path d="M349.867,375.467h-59.733c-4.713,0-8.533,3.821-8.533,8.533s3.821,8.533,8.533,8.533h59.733
			c4.713,0,8.533-3.82,8.533-8.533S354.579,375.467,349.867,375.467z"/>
		<path d="M162.133,392.533H256c4.713,0,8.533-3.82,8.533-8.533s-3.821-8.533-8.533-8.533h-93.867c-4.713,0-8.533,3.821-8.533,8.533
			S157.421,392.533,162.133,392.533z"/>
	</g>
</g>
<g>
</g>
<g>
</g>
<g>
</g>
<g>
</g>
<g>
</g>
<g>
</g>
<g>
</g>
<g>
</g>
<g>
</g>
<g>
</g>
<g>
</g>
<g>
</g>
<g>
</g>
<g>
</g>
<g>
</g>
</svg>
