<?xml version="1.0" encoding="iso-8859-1"?>
<!-- Generator: Adobe Illustrator 19.0.0, SVG Export Plug-In . SVG Version: 6.00 Build 0)  -->
<svg version="1.1" id="Capa_1" xmlns="http://www.w3.org/2000/svg" xmlns:xlink="http://www.w3.org/1999/xlink" x="0px" y="0px"
	 viewBox="0 0 505.016 505.016" style="enable-background:new 0 0 505.016 505.016;" xml:space="preserve">
<g transform="translate(-1)">
	<g transform="translate(1 1)">
		<path style="fill:#FF9801;" d="M92.336,24.885l0,402.885H58.762V24.885c0.028-9.26,7.527-16.759,16.787-16.787
			c4.453-0.024,8.725,1.764,11.835,4.952C90.572,16.16,92.359,20.432,92.336,24.885z"/>
		<path style="fill:#FFB301;" d="M142.696,100.426c0,37.085-30.063,67.148-67.148,67.148c-4.224-0.005-8.438-0.398-12.59-1.175
			c-31.697-6.009-54.64-33.711-54.64-65.972s22.943-59.963,54.64-65.972c4.152-0.777,8.366-1.171,12.59-1.175
			C112.633,33.279,142.696,63.342,142.696,100.426z"/>
		<g>
			<path style="fill:#AD1457;" d="M117.516,444.557v16.787H33.582v-16.787c0.028-9.26,7.527-16.759,16.787-16.787h50.361
				C109.989,427.798,117.488,435.298,117.516,444.557z"/>
			<path style="fill:#AD1457;" d="M134.303,478.131v16.787H16.795v-16.787c0.028-9.26,7.527-16.759,16.787-16.787h83.934
				C126.776,461.372,134.275,468.871,134.303,478.131z"/>
			<path style="fill:#AD1457;" d="M125.91,226.328c-0.069,9.243-7.544,16.718-16.787,16.787H41.975
				c-9.26-0.028-16.759-7.527-16.787-16.787c0.069-9.243,7.544-16.718,16.787-16.787h67.148
				C118.382,209.569,125.882,217.068,125.91,226.328z"/>
			<path style="fill:#AD1457;" d="M125.91,301.869c-0.069,9.243-7.544,16.718-16.787,16.787H41.975
				c-9.26-0.028-16.759-7.527-16.787-16.787c0.069-9.243,7.544-16.718,16.787-16.787h67.148
				C118.382,285.11,125.882,292.609,125.91,301.869z"/>
			<path style="fill:#AD1457;" d="M125.91,377.41c-0.069,9.243-7.544,16.718-16.787,16.787H41.975
				c-9.26-0.028-16.759-7.527-16.787-16.787c0.069-9.243,7.544-16.718,16.787-16.787h67.148
				C118.382,360.651,125.882,368.15,125.91,377.41z"/>
		</g>
		<path style="fill:#FF9801;" d="M444.86,24.885l0,402.885h-33.574V24.885c0.028-9.26,7.527-16.759,16.787-16.787
			c4.453-0.024,8.725,1.764,11.835,4.952C443.097,16.16,444.884,20.432,444.86,24.885z"/>
		<g>
			<path style="fill:#AD1457;" d="M478.434,226.328c-0.069,9.243-7.544,16.718-16.787,16.787H394.5
				c-9.26-0.028-16.759-7.527-16.787-16.787c0.069-9.243,7.544-16.718,16.787-16.787h67.148
				C470.907,209.569,478.406,217.068,478.434,226.328z"/>
			<path style="fill:#AD1457;" d="M478.434,301.869c-0.069,9.243-7.544,16.718-16.787,16.787H394.5
				c-9.26-0.028-16.759-7.527-16.787-16.787c0.069-9.243,7.544-16.718,16.787-16.787h67.148
				C470.907,285.11,478.406,292.609,478.434,301.869z"/>
			<path style="fill:#AD1457;" d="M478.434,377.41c-0.069,9.243-7.544,16.718-16.787,16.787H394.5
				c-9.26-0.028-16.759-7.527-16.787-16.787c0.069-9.243,7.544-16.718,16.787-16.787h67.148
				C470.907,360.651,478.406,368.15,478.434,377.41z"/>
		</g>
		<g>
			<path style="fill:#E91E63;" d="M100.729,226.328c-0.069,9.243-7.544,16.718-16.787,16.787H41.975
				c-9.26-0.028-16.759-7.527-16.787-16.787c0.069-9.243,7.544-16.718,16.787-16.787h41.967
				C93.202,209.569,100.702,217.068,100.729,226.328z"/>
			<path style="fill:#E91E63;" d="M100.729,301.869c-0.069,9.243-7.544,16.718-16.787,16.787H41.975
				c-9.26-0.028-16.759-7.527-16.787-16.787c0.069-9.243,7.544-16.718,16.787-16.787h41.967
				C93.202,285.11,100.702,292.609,100.729,301.869z"/>
			<path style="fill:#E91E63;" d="M100.729,377.41c-0.069,9.243-7.544,16.718-16.787,16.787H41.975
				c-9.26-0.028-16.759-7.527-16.787-16.787c0.069-9.243,7.544-16.718,16.787-16.787h41.967
				C93.202,360.651,100.702,368.15,100.729,377.41z"/>
			<path style="fill:#E91E63;" d="M453.254,226.328c-0.069,9.243-7.544,16.718-16.787,16.787H394.5
				c-9.26-0.028-16.759-7.527-16.787-16.787c0.069-9.243,7.544-16.718,16.787-16.787h41.967
				C445.727,209.569,453.226,217.068,453.254,226.328z"/>
			<path style="fill:#E91E63;" d="M453.254,301.869c-0.069,9.243-7.544,16.718-16.787,16.787H394.5
				c-9.26-0.028-16.759-7.527-16.787-16.787c0.069-9.243,7.544-16.718,16.787-16.787h41.967
				C445.727,285.11,453.226,292.609,453.254,301.869z"/>
			<path style="fill:#E91E63;" d="M453.254,377.41c-0.069,9.243-7.544,16.718-16.787,16.787H394.5
				c-9.26-0.028-16.759-7.527-16.787-16.787c0.069-9.243,7.544-16.718,16.787-16.787h41.967
				C445.727,360.651,453.226,368.15,453.254,377.41z"/>
		</g>
		<path style="fill:#FFB301;" d="M495.221,100.426c0,37.085-30.063,67.148-67.148,67.148c-4.224-0.005-8.438-0.398-12.59-1.175
			c-31.697-6.009-54.64-33.711-54.64-65.972s22.943-59.963,54.64-65.972c4.152-0.777,8.366-1.171,12.59-1.175
			C465.158,33.279,495.221,63.342,495.221,100.426z"/>
		<g>
			<ellipse style="fill:#FEC108;" cx="62.959" cy="100.426" rx="54.557" ry="65.972"/>
			<ellipse style="fill:#FEC108;" cx="415.483" cy="100.426" rx="54.557" ry="65.972"/>
		</g>
		<g>
			<path style="fill:#AD1457;" d="M470.041,444.557v16.787h-83.934v-16.787c0.028-9.26,7.527-16.759,16.787-16.787h50.361
				C462.513,427.798,470.013,435.298,470.041,444.557z"/>
			<path style="fill:#AD1457;" d="M486.828,478.131v16.787H369.319v-16.787c0.028-9.26,7.527-16.759,16.787-16.787h83.934
				C479.3,461.372,486.8,468.871,486.828,478.131z"/>
		</g>
		<g>
			<path style="fill:#E91E63;" d="M92.336,444.557v16.787H33.582v-16.787c0.028-9.26,7.527-16.759,16.787-16.787h25.18
				C84.809,427.798,92.308,435.298,92.336,444.557z"/>
			<path style="fill:#E91E63;" d="M109.123,478.131v16.787H16.795v-16.787c0.028-9.26,7.527-16.759,16.787-16.787h59.09
				C101.811,461.527,109.124,468.99,109.123,478.131z"/>
			<path style="fill:#E91E63;" d="M444.86,444.557v16.787h-58.754v-16.787c0.028-9.26,7.527-16.759,16.787-16.787h25.18
				C437.333,427.798,444.833,435.298,444.86,444.557z"/>
			<path style="fill:#E91E63;" d="M461.647,478.131v16.787h-92.328v-16.787c0.028-9.26,7.527-16.759,16.787-16.787h59.09
				C454.336,461.527,461.649,468.99,461.647,478.131z"/>
		</g>
		<g>
			<circle style="fill:#FFFFFF;" cx="67.155" cy="83.639" r="16.787"/>
			<circle style="fill:#FFFFFF;" cx="419.68" cy="83.639" r="16.787"/>
		</g>
	</g>
	<g>
		<path d="M93.336,84.639c0-13.907-11.274-25.18-25.18-25.18s-25.18,11.274-25.18,25.18s11.274,25.18,25.18,25.18
			S93.336,98.546,93.336,84.639z M68.155,93.033c-4.636,0-8.393-3.758-8.393-8.393c0-4.636,3.758-8.393,8.393-8.393
			s8.393,3.758,8.393,8.393C76.549,89.275,72.791,93.033,68.155,93.033z"/>
		<path d="M420.68,109.82c13.907,0,25.18-11.274,25.18-25.18s-11.274-25.18-25.18-25.18c-13.907,0-25.18,11.274-25.18,25.18
			S406.773,109.82,420.68,109.82z M420.68,76.246c4.636,0,8.393,3.758,8.393,8.393c0,4.636-3.758,8.393-8.393,8.393
			s-8.393-3.758-8.393-8.393C412.287,80.004,416.044,76.246,420.68,76.246z"/>
		<path d="M497.623,487.525h-1.402v-8.393c-0.044-10.633-6.762-20.092-16.787-23.636v-9.938c0-13.907-11.274-25.18-25.18-25.18
			V403.59h8.393c13.907,0,25.18-11.274,25.18-25.18c0-13.907-11.274-25.18-25.18-25.18h-8.393v-25.18h8.393
			c13.907,0,25.18-11.274,25.18-25.18c0-13.907-11.274-25.18-25.18-25.18h-8.393v-25.18h8.393c13.907,0,25.18-11.274,25.18-25.18
			c0-13.907-11.274-25.18-25.18-25.18h-8.393v-29.587c30.179-10.626,50.369-39.139,50.369-71.134s-20.189-60.508-50.369-71.134
			v-4.407c0.054-6.648-2.593-13.034-7.336-17.693c-4.683-4.818-11.126-7.521-17.844-7.487c-13.907,0-25.18,11.274-25.18,25.18v4.407
			c-27.243,9.67-46.595,34.018-49.865,62.741h-20.144l-22.998-53.668c-1.323-3.085-4.357-5.084-7.714-5.084
			c-3.356,0-6.39,2-7.714,5.084l-42.647,99.504l-42.647-99.504c-1.323-3.085-4.357-5.084-7.714-5.084s-6.39,2-7.714,5.084
			l-22.998,53.668h-20.144c-3.27-28.723-22.622-53.071-49.865-62.741v-4.407c0.048-6.647-2.598-13.03-7.336-17.693
			C89.71,3.374,83.268,0.671,76.549,0.705c-13.907,0-25.18,11.274-25.18,25.18v4.407C21.189,40.918,1,69.431,1,101.426
			s20.189,60.508,50.369,71.134v29.587h-8.393c-13.907,0-25.18,11.274-25.18,25.18c0,13.907,11.274,25.18,25.18,25.18h8.393v25.18
			h-8.393c-13.907,0-25.18,11.274-25.18,25.18c0,13.907,11.274,25.18,25.18,25.18h8.393v25.18h-8.393
			c-13.907,0-25.18,11.274-25.18,25.18c0,13.907,11.274,25.18,25.18,25.18h8.393v16.787c-13.907,0-25.18,11.274-25.18,25.18v9.938
			c-10.025,3.544-16.743,13.003-16.787,23.636v8.393c-4.636,0-8.393,3.758-8.393,8.393s3.758,8.393,8.393,8.393h488.221
			c4.636,0,8.393-3.758,8.393-8.393S502.258,487.525,497.623,487.525z M462.647,445.557v8.393H395.5v-8.393
			c0-4.636,3.758-8.393,8.393-8.393h50.361C458.889,437.164,462.647,440.922,462.647,445.557z M437.467,420.377H420.68V403.59
			h16.787V420.377z M471.041,378.41c0,4.636-3.758,8.393-8.393,8.393H395.5c-4.636,0-8.393-3.758-8.393-8.393
			c0-4.636,3.758-8.393,8.393-8.393h67.148C467.283,370.016,471.041,373.774,471.041,378.41z M437.467,353.23H420.68v-25.18h16.787
			V353.23z M471.041,302.869c0,4.636-3.758,8.393-8.393,8.393H395.5c-4.636,0-8.393-3.758-8.393-8.393
			c0-4.636,3.758-8.393,8.393-8.393h67.148C467.283,294.475,471.041,298.233,471.041,302.869z M437.467,277.689H420.68v-25.18
			h16.787V277.689z M471.041,227.328c0,4.636-3.758,8.393-8.393,8.393H395.5c-4.636,0-8.393-3.758-8.393-8.393
			c0-4.636,3.758-8.393,8.393-8.393h67.148C467.283,218.934,471.041,222.692,471.041,227.328z M437.467,202.148H420.68v-25.676
			c5.576,0.661,11.211,0.661,16.787,0V202.148z M420.68,25.885c0-4.636,3.758-8.393,8.393-8.393
			c2.264-0.006,4.429,0.924,5.985,2.568c1.557,1.537,2.425,3.638,2.409,5.825v0.495c-5.576-0.661-11.211-0.661-16.787,0V25.885z
			 M429.073,42.672c32.449,0,58.754,26.305,58.754,58.754s-26.305,58.754-58.754,58.754s-58.754-26.305-58.754-58.754
			C370.356,68.993,396.64,42.709,429.073,42.672z M177.27,109.82c3.357,0,6.391-2.001,7.714-5.086l17.467-40.75l42.647,99.504
			c1.323,3.085,4.357,5.084,7.714,5.084s6.39-2,7.714-5.084l42.647-99.504l17.467,40.75c1.323,3.085,4.357,5.086,7.714,5.086h25.676
			c3.27,28.723,22.622,53.071,49.865,62.741v29.587H395.5c-13.907,0-25.18,11.274-25.18,25.18c0,13.907,11.274,25.18,25.18,25.18
			h8.393v25.18H395.5c-13.907,0-25.18,11.274-25.18,25.18c0,13.907,11.274,25.18,25.18,25.18h8.393v25.18H395.5
			c-13.907,0-25.18,11.274-25.18,25.18c0,13.907,11.274,25.18,25.18,25.18h8.393v16.787c-13.907,0-25.18,11.274-25.18,25.18v9.938
			c-10.025,3.544-16.743,13.003-16.787,23.636v8.393h-218.23v-8.393c-0.044-10.633-6.762-20.092-16.787-23.636v-9.938
			c0-13.907-11.274-25.18-25.18-25.18V403.59h8.393c13.907,0,25.18-11.274,25.18-25.18c0-13.907-11.274-25.18-25.18-25.18h-8.393
			v-25.18h8.393c13.907,0,25.18-11.274,25.18-25.18c0-13.907-11.274-25.18-25.18-25.18h-8.393v-25.18h8.393
			c13.907,0,25.18-11.274,25.18-25.18c0-13.907-11.274-25.18-25.18-25.18h-8.393v-29.587c27.243-9.67,46.595-34.018,49.865-62.741
			H177.27z M68.155,25.885c0-4.636,3.758-8.393,8.393-8.393c2.262-0.007,4.425,0.923,5.976,2.568
			c1.566,1.531,2.439,3.635,2.417,5.825v0.495c-5.576-0.661-11.211-0.661-16.787,0V25.885z M17.795,101.426
			c0-32.449,26.305-58.754,58.754-58.754s58.754,26.305,58.754,58.754s-26.305,58.754-58.754,58.754
			C44.115,160.143,17.832,133.86,17.795,101.426z M68.155,176.472c5.576,0.661,11.211,0.661,16.787,0v25.676H68.155V176.472z
			 M34.582,227.328c0-4.636,3.758-8.393,8.393-8.393h67.148c4.636,0,8.393,3.758,8.393,8.393c0,4.636-3.758,8.393-8.393,8.393
			H42.975C38.34,235.721,34.582,231.963,34.582,227.328z M68.155,252.508h16.787v25.18H68.155V252.508z M34.582,302.869
			c0-4.636,3.758-8.393,8.393-8.393h67.148c4.636,0,8.393,3.758,8.393,8.393c0,4.636-3.758,8.393-8.393,8.393H42.975
			C38.34,311.262,34.582,307.504,34.582,302.869z M68.155,328.049h16.787v25.18H68.155V328.049z M34.582,378.41
			c0-4.636,3.758-8.393,8.393-8.393h67.148c4.636,0,8.393,3.758,8.393,8.393c0,4.636-3.758,8.393-8.393,8.393H42.975
			C38.34,386.803,34.582,383.045,34.582,378.41z M68.155,403.59h16.787v16.787H68.155V403.59z M42.975,445.557
			c0-4.636,3.758-8.393,8.393-8.393h50.361c4.636,0,8.393,3.758,8.393,8.393v8.393H42.975V445.557z M26.188,487.525v-8.393
			c0-4.636,3.758-8.393,8.393-8.393h83.934c4.636,0,8.393,3.758,8.393,8.393v8.393H26.188z M378.713,487.525v-8.393
			c0-4.636,3.758-8.393,8.393-8.393h83.934c4.636,0,8.393,3.758,8.393,8.393v8.393H378.713z"/>
	</g>
</g>
<g>
</g>
<g>
</g>
<g>
</g>
<g>
</g>
<g>
</g>
<g>
</g>
<g>
</g>
<g>
</g>
<g>
</g>
<g>
</g>
<g>
</g>
<g>
</g>
<g>
</g>
<g>
</g>
<g>
</g>
</svg>
