<?xml version="1.0" encoding="iso-8859-1"?>
<!-- Generator: Adobe Illustrator 19.0.0, SVG Export Plug-In . SVG Version: 6.00 Build 0)  -->
<svg version="1.1" id="Capa_1" xmlns="http://www.w3.org/2000/svg" xmlns:xlink="http://www.w3.org/1999/xlink" x="0px" y="0px"
	 viewBox="0 0 508.805 508.805" style="enable-background:new 0 0 508.805 508.805;" xml:space="preserve">
<g transform="translate(-1)">
	<g transform="translate(1 1)">
		<g>
			<path style="fill:#4CAF50;" d="M496.673,289.918c-0.171,0.683-0.427,1.451-0.597,2.133c-1.49,5.065-3.315,10.025-5.461,14.848
				c-1.421,3.241-3.017,6.403-4.779,9.472c-3.007,5.357-6.312,10.542-9.899,15.531c-1.877,2.56-3.84,5.12-5.803,7.68
				c-1.792,2.133-5.717,5.205-6.571,7.68c3.024-8.596,4.385-17.69,4.011-26.795c-1.451-33.195-25.6-63.915-55.296-81.579
				c-7.908-3.579-14.973-8.784-20.736-15.275c-4.856-6.768-7.481-14.881-7.509-23.211c0.392-11.422,5.378-22.202,13.828-29.898
				c8.45-7.695,19.649-11.653,31.058-10.977c13.103,1.061,25.421,6.676,34.816,15.872c5.364,4.819,10.199,10.197,14.421,16.043
				c10.975,15.189,18.092,32.819,20.736,51.371c0.085,0.597,0.171,1.109,0.256,1.707
				C501.275,259.67,500.434,275.089,496.673,289.918z"/>
			<path style="fill:#4CAF50;" d="M124.79,306.387c-0.392,11.422-5.378,22.202-13.828,29.898
				c-8.45,7.695-19.649,11.653-31.058,10.977c-1.365-0.085-2.816-0.171-4.181-0.341c-9.536-1.509-18.494-5.546-25.941-11.691
				c-7.299-5.669-13.738-12.366-19.115-19.883c-6.753-9.314-12.021-19.62-15.616-30.549c-2.503-7.322-4.303-14.865-5.376-22.528
				c-2.142-15.154-1.272-30.581,2.56-45.397c1.53-5.812,3.528-11.491,5.973-16.981c0.427-0.939,0.853-1.877,1.365-2.816
				c1.024-2.304,2.219-4.523,3.413-6.656c3.007-5.357,6.312-10.542,9.899-15.531c1.877-2.56,3.84-5.12,5.888-7.68
				c1.707-2.133,5.632-5.205,6.571-7.68c-3.938,11.19-5.024,23.186-3.157,34.901c4.523,30.037,27.051,57.259,54.357,73.472
				c7.933,3.578,15.027,8.782,20.821,15.275C122.16,289.97,124.752,298.073,124.79,306.387z"/>
		</g>
		<g>
			<path style="fill:#FFEB3A;" d="M440.267,119.251c-6.219-7.313-13.853-13.293-22.443-17.579
				c-29.269-14.507-67.328-8.875-97.024,7.765c-7.079,5.041-15.128,8.557-23.637,10.325c-8.274,0.781-16.587-1.007-23.808-5.12
				c-9.701-6.045-16.55-15.751-18.992-26.918s-0.271-22.846,6.022-32.389c6.853-10.129,16.926-17.647,28.587-21.333
				c7.65-2.665,15.581-4.441,23.637-5.291c16.417-1.712,33.011,0.152,48.64,5.461c0.085,0,0.085,0.085,0.171,0.085
				c2.56,0.853,5.12,1.792,7.68,2.816c14.199,5.688,27.133,14.127,38.059,24.832c1.536,1.536,3.072,3.157,4.437,4.779
				c2.606,2.799,5.029,5.764,7.253,8.875c2.048,2.901,4.011,5.803,5.803,8.875c3.147,5.298,5.996,10.768,8.533,16.384
				c1.28,2.901,2.56,5.888,3.669,8.875C437.604,113.005,438.75,116.214,440.267,119.251z"/>
			<path style="fill:#FFEB3A;" d="M248.438,451.454c-6.646,9.857-16.368,17.238-27.648,20.992
				c-7.922,2.906-16.179,4.798-24.576,5.632c-13.261,1.379-26.662,0.426-39.595-2.816c-5.755-1.449-11.401-3.303-16.896-5.547
				c-14.172-5.69-27.078-14.13-37.973-24.832c-4.284-4.229-8.222-8.795-11.776-13.653c-0.342-0.435-0.655-0.891-0.939-1.365
				c-1.707-2.475-3.328-4.949-4.864-7.509c-3.147-5.298-5.996-10.768-8.533-16.384c-1.28-2.901-2.475-5.888-3.669-8.875
				c-0.672-3.333-1.822-6.552-3.413-9.557c7.573,8.885,17.214,15.771,28.075,20.053c28.416,11.264,63.573,5.376,91.392-10.24
				c7.079-5.041,15.128-8.557,23.637-10.325c8.274-0.79,16.59,0.998,23.808,5.12c9.701,6.045,16.55,15.751,18.992,26.918
				C256.902,430.232,254.731,441.911,248.438,451.454z"/>
		</g>
		<g>
			<path style="fill:#E91E63;" d="M231.201,25.385c-10.639,1.952-20.685,6.332-29.355,12.8l-0.085,0.085
				c-25.344,18.603-38.485,52.907-38.827,85.675c0.851,8.642-0.138,17.367-2.901,25.6c-3.391,7.597-9.095,13.929-16.299,18.091
				c-10.087,5.387-21.923,6.467-32.819,2.996c-10.896-3.471-19.925-11.199-25.037-21.428c-0.93-1.771-1.757-3.594-2.475-5.461
				c-2.911-8.618-3.672-17.816-2.219-26.795c1.37-9.103,3.983-17.975,7.765-26.368c5.077-11.519,12.09-22.082,20.736-31.232
				c4.538-4.866,9.445-9.373,14.677-13.483c12.048-9.401,25.817-16.358,40.533-20.48c4.991-1.311,10.066-2.28,15.189-2.901
				c0.837-0.225,1.695-0.368,2.56-0.427c3.499-0.341,7.083-0.512,10.581-0.597c6.155-0.056,12.308,0.228,18.432,0.853
				c3.157,0.341,6.4,0.768,9.557,1.195C224.446,24.576,227.804,25.207,231.201,25.385z"/>
			<path style="fill:#E91E63;" d="M426.785,395.049c-1.553,7.267-3.84,14.358-6.827,21.163
				c-6.81,15.141-16.792,28.643-29.269,39.595c-2.048,1.707-4.096,3.499-6.229,5.12c-12.038,9.418-25.81,16.376-40.533,20.48
				c-3.089,0.854-6.223,1.538-9.387,2.048c-2.731,0.512-5.547,0.939-8.363,1.28c-3.499,0.341-6.997,0.512-10.581,0.597
				c-6.155,0.056-12.309-0.228-18.432-0.853c-3.157-0.341-6.315-0.768-9.472-1.195c-3.089-0.948-6.26-1.605-9.472-1.963
				c9.827-1.921,19.134-5.906,27.307-11.691c26.283-18.261,39.936-53.333,40.363-86.784c-0.851-8.642,0.138-17.367,2.901-25.6
				c3.445-7.562,9.136-13.879,16.299-18.091c10.087-5.387,21.923-6.467,32.819-2.996s19.925,11.199,25.038,21.428
				C428.549,369.246,429.907,382.495,426.785,395.049z"/>
		</g>
		<g>
			<path style="fill:#AD1457;" d="M221.217,23.507c-3.157-0.427-6.4-0.853-9.557-1.195c-6.124-0.625-12.277-0.91-18.432-0.853
				c-3.499,0.085-7.083,0.256-10.581,0.597c-0.865,0.059-1.723,0.202-2.56,0.427c-25.366,8.257-49.164,20.719-70.4,36.864
				c-8.646,9.15-15.659,19.713-20.736,31.232c-3.783,8.393-6.395,17.265-7.765,26.368c30.279-38.954,72.726-66.651,120.576-78.677
				l0.085-0.085c8.67-6.468,18.715-10.848,29.355-12.8C227.804,25.207,224.446,24.576,221.217,23.507z"/>
			<path style="fill:#AD1457;" d="M305.526,469.63c-8.173,5.785-17.48,9.769-27.307,11.691c3.212,0.358,6.383,1.015,9.472,1.963
				c3.157,0.427,6.315,0.853,9.472,1.195c6.124,0.625,12.277,0.91,18.432,0.853c3.584-0.085,7.083-0.256,10.581-0.597
				c2.816-0.341,5.632-0.768,8.363-1.28c19.856-6.694,38.737-15.991,56.149-27.648c12.478-10.952,22.459-24.454,29.269-39.595
				c2.987-6.805,5.274-13.895,6.827-21.163C395.697,432.602,353.065,458.824,305.526,469.63z"/>
		</g>
		<path style="fill:#FDD834;" d="M68.555,387.539c1.591,3.005,2.741,6.224,3.413,9.557c1.195,2.987,2.389,5.973,3.669,8.875
			c2.537,5.616,5.386,11.086,8.533,16.384c1.536,2.56,3.157,5.035,4.864,7.509c19.769,18.882,42.628,34.237,67.584,45.397
			c12.933,3.242,26.333,4.195,39.595,2.816c8.397-0.834,16.654-2.726,24.576-5.632c-47.344-7.524-90.938-30.295-124.16-64.853
			C85.77,403.311,76.128,396.424,68.555,387.539z"/>
		<path style="fill:#2E7D32;" d="M498.891,242.814c-2.644-18.552-9.761-36.182-20.736-51.371
			c-4.222-5.846-9.057-11.224-14.421-16.043c17.467,46.565,18.82,97.642,3.84,145.067c0.374,9.105-0.987,18.198-4.011,26.795
			c0.853-2.475,4.779-5.547,6.571-7.68c1.963-2.56,3.925-5.12,5.803-7.68c3.587-4.988,6.891-10.173,9.899-15.531
			c1.762-3.069,3.357-6.231,4.779-9.472c2.147-4.823,3.971-9.783,5.461-14.848c2.06-12.782,3.087-25.709,3.072-38.656
			C499.147,249.811,499.062,246.313,498.891,242.814z"/>
		<path style="fill:#FDD834;" d="M436.854,109.694c-1.109-2.987-2.389-5.973-3.669-8.875c-2.537-5.616-5.386-11.086-8.533-16.384
			c-1.792-3.072-3.755-5.973-5.803-8.875c-2.225-3.111-4.647-6.075-7.253-8.875c-15.312-12.853-32.167-23.746-50.176-32.427
			c-0.085,0-0.085-0.085-0.171-0.085c-15.629-5.31-32.223-7.173-48.64-5.461c-8.056,0.85-15.988,2.625-23.637,5.291
			c49.366,7.34,94.788,31.194,128.853,67.669c8.59,4.286,16.224,10.265,22.443,17.579
			C438.75,116.214,437.604,113.005,436.854,109.694z"/>
		<path style="fill:#2E7D32;" d="M34.166,253.395c-0.045-19.93,2.654-39.771,8.021-58.965c-1.866-11.715-0.781-23.711,3.157-34.901
			c-0.939,2.475-4.864,5.547-6.571,7.68c-2.048,2.56-4.011,5.12-5.888,7.68c-3.587,4.988-6.891,10.173-9.899,15.531
			c-1.195,2.133-2.389,4.352-3.413,6.656c-4.432,18.445-6.666,37.35-6.656,56.32c-0.026,10.505,0.687,20.998,2.133,31.403
			c3.595,10.929,8.863,21.235,15.616,30.549c5.377,7.517,11.815,14.214,19.115,19.883C39.427,309.191,34.127,281.418,34.166,253.395
			z"/>
	</g>
	<g>
		<path d="M456.474,345.446c-1.556,4.447,0.785,9.313,5.231,10.871c0.908,0.315,1.863,0.477,2.825,0.478
			c3.442,0.002,6.548-2.064,7.876-5.239c0.74-0.877,1.529-1.712,2.364-2.5c1.039-0.996,2.025-2.048,2.953-3.149
			c2.116-2.617,4.159-5.285,6.127-8.004c3.809-5.258,7.308-10.735,10.479-16.401c1.826-3.302,3.533-6.673,5.12-10.129
			c2.651-5.916,4.817-12.037,6.477-18.304c9.168-36.432,1.908-75.053-19.866-105.668c-9.387-12.8-29.15-34.441-55.782-35.371
			c-14.377-0.515-28.354,4.792-38.767,14.72c-9.542,9.016-14.968,21.552-15.01,34.679c0.059,10.08,3.227,19.896,9.071,28.109
			c5.254,6.553,11.915,11.841,19.49,15.471c1.297,0.742,2.56,1.476,3.883,2.236c32.708,19.405,61.542,58.402,47.539,98.176
			L456.474,345.446z M417.639,232.576c-1.374-0.853-2.773-1.613-4.173-2.406c-5.345-2.489-10.11-6.07-13.986-10.513
			c-3.799-5.323-5.864-11.688-5.914-18.227c0.051-8.488,3.58-16.584,9.762-22.4c6.745-6.425,15.712-9.996,25.028-9.967
			c0.427,0,0.853,0,1.289,0c19.439,0.674,35.046,18.091,42.624,28.416c10.463,14.545,17.141,31.467,19.43,49.237
			c2.033,14.019,1.255,28.302-2.287,42.018c-1.419,5.365-3.274,10.605-5.547,15.667c-1.348,3.004-2.833,5.973-4.429,8.841
			c-0.802,1.434-1.638,2.87-2.509,4.309C473.822,281.702,447.172,250.129,417.639,232.576z"/>
		<path d="M54.375,163.345c1.575-4.37-0.635-9.197-4.972-10.86s-9.208,0.448-10.959,4.751c-0.74,0.877-1.529,1.712-2.364,2.5
			c-1.039,0.996-2.025,2.048-2.953,3.149c-2.116,2.617-4.159,5.285-6.127,8.004c-3.809,5.258-7.308,10.735-10.479,16.401
			c-1.826,3.302-3.541,6.682-5.069,10.121c-2.661,5.916-4.833,12.041-6.494,18.313c-4.117,15.891-5.034,32.442-2.697,48.691
			c2.678,20.57,10.432,40.15,22.562,56.977c9.387,12.8,29.15,34.441,55.782,35.371c0.623,0,1.254,0,1.877,0
			c13.739,0.02,26.954-5.266,36.89-14.754c9.53-9.022,14.943-21.557,14.976-34.679c-0.062-10.077-3.223-19.89-9.054-28.109
			c-5.267-6.535-11.929-11.81-19.499-15.437c-1.306-0.742-2.56-1.476-3.891-2.236c-32.691-19.405-61.517-58.351-47.548-98.15
			L54.375,163.345z M93.193,276.215c1.374,0.853,2.773,1.613,4.173,2.406c5.346,2.489,10.112,6.067,13.995,10.505
			c3.792,5.329,5.853,11.695,5.905,18.236c-0.05,8.488-3.579,16.585-9.762,22.4c-7.077,6.685-16.527,10.272-26.257,9.967
			c-19.447-0.674-35.055-18.091-42.667-28.416c-10.454-14.548-17.123-31.469-19.405-49.237c-2.033-14.016-1.255-28.297,2.287-42.01
			c1.423-5.373,3.281-10.621,5.555-15.693c1.348-2.995,2.825-5.973,4.42-8.823c0.802-1.434,1.638-2.867,2.509-4.318
			C37.026,227.089,63.676,258.705,93.193,276.215z"/>
		<path d="M294.4,129.476c1.519,0,3.038-0.068,4.565-0.213c8.301-1.271,16.21-4.392,23.142-9.131
			c1.289-0.768,2.56-1.527,3.891-2.253c33.143-18.637,81.331-24.107,108.791,7.91c3.076,3.644,8.496,4.174,12.22,1.195
			c1.738-1.393,2.838-3.43,3.048-5.647c0.211-2.217-0.486-4.425-1.93-6.12c-0.427-1.113-0.777-2.253-1.05-3.413
			c-0.348-1.405-0.767-2.792-1.254-4.156c-1.22-3.132-2.492-6.229-3.866-9.284c-2.646-5.925-5.638-11.689-8.96-17.263
			c-1.937-3.243-4.028-6.4-6.229-9.472c-3.8-5.257-8.021-10.197-12.621-14.771c-11.695-11.529-25.57-20.611-40.815-26.718
			c-19.143-7.954-39.962-11.027-60.587-8.943c-15.787,1.707-44.373,8.021-58.522,30.618c-7.653,12.197-10.048,26.97-6.639,40.96
			c3.055,12.761,11.206,23.713,22.554,30.302C277.531,127.286,285.894,129.492,294.4,129.476z M268.647,60.868
			c10.317-16.503,33.203-21.333,45.926-22.707c3.562-0.392,7.143-0.589,10.726-0.589c14.259,0.081,28.368,2.921,41.549,8.363
			c13.159,5.253,25.141,13.071,35.251,22.997c3.939,3.914,7.555,8.14,10.812,12.638c1.911,2.671,3.729,5.419,5.419,8.26
			c0.853,1.411,1.684,2.853,2.492,4.326c-32.546-15.249-73.25-7.979-103.202,8.841c-1.408,0.785-2.799,1.604-4.19,2.423
			c-4.824,3.378-10.304,5.704-16.085,6.827c-6.519,0.622-13.072-0.772-18.773-3.994c-7.313-4.287-12.554-11.378-14.507-19.627
			C261.789,79.134,263.441,69.125,268.647,60.868z"/>
		<path d="M63.778,397.021c0.345,1.404,0.763,2.788,1.254,4.147c1.22,3.132,2.492,6.229,3.866,9.284
			c2.64,5.929,5.623,11.699,8.934,17.28c1.946,3.243,4.019,6.397,6.221,9.463c3.8,5.257,8.021,10.197,12.621,14.771
			c11.7,11.514,25.575,20.585,40.815,26.684c15.23,6.281,31.534,9.55,48.009,9.626c4.216,0.004,8.43-0.224,12.621-0.683
			c15.787-1.707,44.373-8.021,58.522-30.618c7.653-12.197,10.048-26.97,6.639-40.96c-3.055-12.761-11.206-23.713-22.554-30.302
			c-8.754-4.993-18.836-7.16-28.868-6.204c-8.284,1.285-16.174,4.411-23.091,9.148c-1.289,0.768-2.56,1.527-3.891,2.253
			c-33.143,18.628-81.323,24.107-108.791-7.91c-3.078-3.64-8.495-4.17-12.22-1.195c-1.738,1.393-2.838,3.43-3.048,5.647
			c-0.211,2.217,0.486,4.425,1.931,6.12C63.165,394.699,63.51,395.851,63.778,397.021z M193.212,405.794
			c1.399-0.785,2.79-1.604,4.181-2.423c4.824-3.378,10.304-5.704,16.085-6.827c6.519-0.623,13.072,0.771,18.773,3.994
			c7.313,4.287,12.554,11.378,14.507,19.627c2.285,9.488,0.645,19.496-4.548,27.759c-10.317,16.503-33.203,21.333-45.926,22.707
			c-17.811,1.785-35.787-0.886-52.309-7.774c-13.153-5.254-25.13-13.072-35.234-22.997c-3.939-3.914-7.555-8.14-10.812-12.638
			c-1.911-2.671-3.729-5.427-5.419-8.26c-0.853-1.411-1.684-2.853-2.492-4.326C122.564,429.883,163.277,422.613,193.212,405.794z"/>
		<path d="M82.099,88.183c-6.4,14.549-15.266,42.47-2.748,66.005c6.74,12.71,18.324,22.162,32.128,26.214
			c4.489,1.291,9.136,1.952,13.807,1.963c8.328,0.011,16.511-2.176,23.723-6.34c8.697-5.092,15.613-12.741,19.806-21.905
			c3.05-7.834,4.301-16.253,3.661-24.636c0-1.493,0-2.987,0-4.471c0.452-38.025,19.797-82.483,61.235-90.249
			c4.691-0.843,7.854-5.274,7.125-9.984c-0.343-2.196-1.559-4.159-3.372-5.445s-4.068-1.784-6.254-1.382
			c-1.188-0.194-2.362-0.465-3.516-0.811c-1.387-0.403-2.794-0.734-4.215-0.99c-3.319-0.521-6.639-0.956-9.984-1.297
			c-6.457-0.671-12.948-0.956-19.439-0.853c-3.78,0.068-7.561,0.282-11.298,0.666c-6.452,0.658-12.839,1.842-19.098,3.541
			c-15.821,4.382-30.614,11.863-43.52,22.007C103.68,52.805,90.607,69.288,82.099,88.183z M130.611,53.64
			c11.13-8.767,23.894-15.233,37.547-19.021c5.355-1.456,10.82-2.469,16.341-3.029c3.268-0.333,6.562-0.521,9.847-0.58h2.091
			c0.973,0,1.937,0,2.91,0c-29.483,20.565-43.52,59.46-43.947,93.79c0,1.596,0,3.2,0,4.804c0.522,5.881-0.196,11.805-2.108,17.391
			c-2.706,5.943-7.175,10.909-12.8,14.225c-7.379,4.207-16.161,5.204-24.294,2.756c-9.363-2.764-17.213-9.192-21.769-17.826
			c-9.131-17.169-1.843-39.39,3.311-51.115c7.36-16.312,18.662-30.537,32.887-41.395H130.611z"/>
		<path d="M279.612,490.871c1.183,0.194,2.351,0.464,3.499,0.811c1.404,0.405,2.828,0.735,4.267,0.99
			c3.305,0.518,6.63,0.95,9.975,1.297c5.671,0.574,11.367,0.859,17.067,0.853h2.364c3.78-0.068,7.561-0.282,11.298-0.666
			c6.454-0.658,12.844-1.843,19.106-3.541c36.14-10.262,65.958-35.862,81.57-70.033c6.4-14.507,15.266-42.47,2.748-66.005
			c-6.74-12.71-18.324-22.162-32.128-26.214c-12.587-3.739-26.157-2.157-37.547,4.378c-8.697,5.092-15.613,12.741-19.806,21.905
			c-3.05,7.834-4.301,16.253-3.661,24.636c0,1.493,0,2.987,0,4.471c-0.444,38.016-19.797,82.466-61.21,90.249
			c-4.692,0.843-7.857,5.272-7.134,9.984c0.323,2.203,1.526,4.18,3.335,5.478S277.422,491.27,279.612,490.871z M355.431,383.974
			c0-1.596,0-3.2,0-4.804c-0.522-5.881,0.196-11.805,2.108-17.391c2.706-5.943,7.175-10.909,12.8-14.225
			c7.381-4.201,16.16-5.197,24.294-2.756c9.363,2.764,17.213,9.192,21.769,17.826c9.131,17.169,1.852,39.39-3.311,51.115
			c-13.535,29.454-39.258,51.528-70.426,60.433c-5.358,1.456-10.826,2.47-16.35,3.029c-3.271,0.336-6.554,0.529-9.847,0.58
			c-1.647,0-3.302,0-4.992,0C340.967,457.199,355.021,418.304,355.431,383.974z"/>
	</g>
</g>
<g>
</g>
<g>
</g>
<g>
</g>
<g>
</g>
<g>
</g>
<g>
</g>
<g>
</g>
<g>
</g>
<g>
</g>
<g>
</g>
<g>
</g>
<g>
</g>
<g>
</g>
<g>
</g>
<g>
</g>
</svg>
