<?xml version="1.0" encoding="iso-8859-1"?>
<!-- Generator: Adobe Illustrator 19.0.0, SVG Export Plug-In . SVG Version: 6.00 Build 0)  -->
<svg version="1.1" id="Capa_1" xmlns="http://www.w3.org/2000/svg" xmlns:xlink="http://www.w3.org/1999/xlink" x="0px" y="0px"
	 viewBox="0 0 512.091 512.091" style="enable-background:new 0 0 512.091 512.091;" xml:space="preserve">
<g transform="translate(0 -1)">
	<g transform="translate(1 2)">
		<rect x="45.979" y="92.982" style="fill:#607D8B;" width="341.333" height="358.4"/>
		<rect x="45.979" y="92.982" style="fill:#CFD8DC;" width="315.733" height="358.4"/>
		<path style="fill:#AD1457;" d="M148.379,50.315c0,23.564-19.103,42.667-42.667,42.667c-4.334-0.013-8.644-0.645-12.8-1.877
			c-17.783-5.632-29.868-22.136-29.868-40.789S75.129,15.158,92.912,9.526c4.156-1.232,8.466-1.864,12.8-1.877
			C129.276,7.649,148.379,26.751,148.379,50.315z"/>
		<ellipse style="fill:#E91E63;" cx="92.912" cy="50.315" rx="29.867" ry="40.789"/>
		<path style="fill:#558B30;" d="M370.246,50.315c0,11.316-4.495,22.168-12.497,30.17c-8.002,8.002-18.854,12.497-30.17,12.497
			c-4.334-0.013-8.644-0.645-12.8-1.877c-17.783-5.632-29.868-22.136-29.868-40.789s12.085-35.157,29.868-40.789
			c4.156-1.232,8.466-1.864,12.8-1.877c11.316,0,22.168,4.495,30.17,12.497C365.75,28.147,370.246,39,370.246,50.315z"/>
		<ellipse style="fill:#8BC34A;" cx="314.779" cy="50.315" rx="29.867" ry="40.789"/>
		<path style="fill:#AD1457;" d="M267.846,451.382c0,28.277-22.923,51.2-51.2,51.2c-4.317-0.013-8.616-0.558-12.8-1.621
			c-22.605-5.815-38.406-26.195-38.406-49.536s15.801-43.721,38.406-49.536c4.172-1.134,8.477-1.708,12.8-1.707
			C244.923,400.182,267.846,423.105,267.846,451.382z"/>
		<path style="fill:#E91E63;" d="M242.246,451.382c-0.055,23.329-15.826,43.691-38.4,49.579
			c-22.605-5.815-38.406-26.195-38.406-49.536s15.801-43.721,38.406-49.536C226.422,407.718,242.209,428.065,242.246,451.382z"/>
	</g>
	<g>
		<path d="M123.779,43.782H89.646c-4.713,0-8.533,3.821-8.533,8.533s3.821,8.533,8.533,8.533h34.133
			c4.713,0,8.533-3.821,8.533-8.533S128.492,43.782,123.779,43.782z"/>
		<path d="M345.646,43.782h-8.533v-8.533c0-4.713-3.821-8.533-8.533-8.533s-8.533,3.821-8.533,8.533v8.533h-8.533
			c-4.713,0-8.533,3.821-8.533,8.533s3.82,8.533,8.533,8.533h8.533v8.533c0,4.713,3.82,8.533,8.533,8.533s8.533-3.821,8.533-8.533
			v-8.533h8.533c4.713,0,8.533-3.821,8.533-8.533S350.358,43.782,345.646,43.782z"/>
		<path d="M458.286,234.929l-76.8,102.4c-0.151,0.277-0.288,0.562-0.41,0.853c-0.314,0.501-0.569,1.036-0.759,1.596
			c-0.174,0.555-0.289,1.127-0.341,1.707c-0.086,0.317-0.152,0.639-0.196,0.964v102.4H276.696
			c-4.218-29.37-29.379-51.176-59.051-51.176s-54.833,21.806-59.051,51.176H55.512V103.515h119.467v17.067
			c0,4.713,3.82,8.533,8.533,8.533s8.533-3.821,8.533-8.533v-17.067h51.2v42.667c0,4.713,3.821,8.533,8.533,8.533
			s8.533-3.821,8.533-8.533v-42.667h119.467v128c0,4.713,3.82,8.533,8.533,8.533s8.533-3.821,8.533-8.533v-128
			c0-9.426-7.641-17.067-17.067-17.067h-13.141c18.447-20.499,17.344-51.927-2.496-71.082c-19.84-19.155-51.286-19.155-71.126,0
			c-19.84,19.155-20.943,50.583-2.496,71.082h-30.208V43.782c0-4.713-3.82-8.533-8.533-8.533s-8.533,3.821-8.533,8.533v42.667h-51.2
			V69.382c0-4.713-3.821-8.533-8.533-8.533s-8.533,3.82-8.533,8.533v17.067h-30.208c18.447-20.499,17.344-51.927-2.496-71.082
			s-51.286-19.155-71.126,0s-20.943,50.583-2.496,71.082H55.512c-9.426,0-17.067,7.641-17.067,17.067v341.333
			c0,9.426,7.641,17.067,17.067,17.067h103.083c4.218,29.37,29.379,51.176,59.051,51.176s54.833-21.806,59.051-51.176h103.083
			c9.426,0,17.067-7.641,17.067-17.067V345.29l75.093-100.122c1.829-2.439,2.218-5.668,1.021-8.472
			c-1.198-2.804-3.8-4.755-6.827-5.12C463.106,231.212,460.115,232.49,458.286,234.929z M294.446,52.315
			c0-18.851,15.282-34.133,34.133-34.133c18.851,0,34.133,15.282,34.133,34.133s-15.282,34.133-34.133,34.133
			C309.728,86.449,294.446,71.167,294.446,52.315z M72.579,52.315c0-18.851,15.282-34.133,34.133-34.133
			s34.133,15.282,34.133,34.133s-15.282,34.133-34.133,34.133S72.579,71.167,72.579,52.315z M253.204,476.874l-23.492-23.492
			l23.492-23.492C262.681,444.118,262.681,462.647,253.204,476.874z M241.138,417.824l-23.492,23.492l-23.492-23.492
			C208.381,408.347,226.91,408.347,241.138,417.824z M182.087,476.874c-9.477-14.228-9.477-32.757,0-46.985l23.492,23.492
			L182.087,476.874z M194.153,488.941l23.492-23.492l23.492,23.492C226.91,498.418,208.381,498.418,194.153,488.941z"/>
	</g>
</g>
<g>
</g>
<g>
</g>
<g>
</g>
<g>
</g>
<g>
</g>
<g>
</g>
<g>
</g>
<g>
</g>
<g>
</g>
<g>
</g>
<g>
</g>
<g>
</g>
<g>
</g>
<g>
</g>
<g>
</g>
</svg>
